<svg width="40" height="40" viewBox="0 0 40 40" fill="none" xmlns="http://www.w3.org/2000/svg">
<path d="M27.36 1.23026C28.6621 2.24435 29.5272 3.76275 29.8573 5.38996C30.0806 7.31176 29.9558 9.13143 29.5978 11.0189C29.1373 13.0874 29.1373 13.0874 29.2784 15.1635C30.492 16.3802 32.3084 16.9888 33.8571 17.6394C38.763 19.7006 38.763 19.7006 39.9265 22.0531C40.158 24.7016 39.9023 26.5954 38.2894 28.7847C36.3675 30.9789 33.1194 32.1148 30.2916 32.3607C27.1824 32.5032 24.2029 32.3805 21.1858 31.5264C21.1462 31.784 21.1067 32.0415 21.066 32.3069C20.4803 34.9606 19.0556 37.3097 16.82 38.8063C15.2065 39.8305 13.7079 40.1692 11.8154 39.9232C10.3414 39.3396 9.45817 38.2812 8.8156 36.8467C8.17424 35.202 8.31259 33.4996 8.34143 31.7589C8.3611 30.1437 8.3611 30.1437 7.69172 28.7292C6.8041 27.8776 5.7005 27.3503 4.61457 26.8032C0.65292 24.7993 0.65292 24.7993 0.102418 23.1296C-0.087397 21.3285 0.0888976 19.8738 1.16723 18.393C2.1403 17.4009 3.26375 16.8497 4.57464 16.4553C4.77889 16.3792 4.98313 16.3032 5.19357 16.2248C6.40545 15.8771 7.67945 15.9799 8.92707 15.9978C9.18444 15.9997 9.4418 16.0017 9.70697 16.0037C10.3388 16.0087 10.9706 16.0158 11.6024 16.0247C11.5975 15.7716 11.5925 15.5185 11.5874 15.2577C11.5933 10.8041 13.7499 6.08649 16.7135 2.89128C19.6488 0.132038 23.7849 -1.1014 27.36 1.23026Z" fill="#06A693"/>
<path d="M27.3601 1.23037C28.6622 2.24446 29.5273 3.76286 29.8575 5.39006C30.0807 7.31187 29.956 9.13154 29.5979 11.019C29.1375 13.0875 29.1375 13.0875 29.2785 15.1636C30.4921 16.3803 32.3085 16.9889 33.8572 17.6396C38.7631 19.7007 38.7631 19.7007 39.9266 22.0532C40.1581 24.7017 39.9024 26.5955 38.2895 28.7848C36.3676 30.979 33.1196 32.1149 30.2917 32.3608C24.9122 32.6073 19.2439 31.8615 14.9567 28.2701C12.7692 26.1568 11.6656 23.2668 11.5817 20.2215C11.5886 20.0444 11.5955 19.8674 11.6025 19.6849C13.0827 19.6276 14.4211 19.7684 15.8618 20.1155C15.8753 20.3162 15.8887 20.5168 15.9026 20.7236C16.0934 22.7321 16.4303 24.5611 17.7785 26.144C18.6024 26.6326 19.392 26.7024 20.334 26.7899C20.6707 26.8319 21.0074 26.8746 21.3439 26.9177C23.9186 27.2247 26.4761 27.29 29.0655 27.2205C29.317 27.2166 29.5684 27.2127 29.8275 27.2087C32.2802 27.1049 35.1808 26.4771 36.9452 24.6369C37.1631 24.3537 37.3774 24.0674 37.584 23.7757C35.6175 22.1995 33.1562 21.3081 30.8108 20.4654C29.019 19.8175 27.3383 19.0847 26.4168 17.3031C26.2996 17.0232 26.1881 16.7406 26.084 16.4554C26.0006 16.2378 25.9171 16.0202 25.8311 15.796C25.4411 14.3705 25.4144 12.9644 25.4077 11.4976C25.4028 11.0786 25.3976 10.6596 25.3923 10.2407C25.3848 9.58634 25.3786 8.93212 25.3757 8.27777C25.3724 7.64197 25.3639 7.00642 25.3545 6.37069C25.3549 6.1771 25.3553 5.9835 25.3557 5.78403C25.3281 4.33451 25.0091 3.20282 24.0644 2.08792C23.7456 1.75461 23.7456 1.75461 23.2273 1.84852C21.126 2.54167 19.8055 4.18094 18.8283 6.10745C17.1413 9.56718 16.201 13.045 15.8618 16.886C14.4165 16.7161 13.0163 16.3665 11.6025 16.0248C11.3339 11.588 13.4204 6.74546 16.2129 3.43132C19.1127 0.304815 23.5471 -1.25645 27.3601 1.23037Z" fill="#F16E0F"/>
<path d="M23.5575 1.63748C24.3623 1.9974 24.8456 2.77267 25.2428 3.5374C25.5301 4.45481 25.5127 5.32798 25.5182 6.28497C25.5213 6.48861 25.5245 6.69225 25.5277 6.90206C25.5375 7.55224 25.5448 8.2024 25.5515 8.85261C25.5603 9.70574 25.5718 10.5588 25.5848 11.4118C25.5859 11.6046 25.587 11.7973 25.5882 11.9959C25.6229 14.2542 25.9641 16.5467 27.4149 18.3393C28.8218 19.5031 30.2655 20.1527 31.9803 20.7346C36.7995 22.4398 36.7995 22.4398 37.7969 23.991C35.9035 26.1904 33.4003 27.1014 30.5694 27.3686C27.7278 27.5363 24.8698 27.5131 22.0376 27.2205C22.0192 26.9708 22.0008 26.721 21.9819 26.4636C21.7431 23.6329 21.2899 20.9946 19.0561 19.0391C18.0396 18.3029 16.9882 17.6508 15.8617 17.1014C15.5701 12.5595 17.3761 7.17936 20.2008 3.63155C21.0094 2.77457 22.3205 1.5346 23.5575 1.63748Z" fill="#FEFDFD"/>
<path d="M8.84731 19.6582C9.11291 19.6601 9.37851 19.6621 9.65216 19.6641C10.3023 19.6691 10.9524 19.6762 11.6025 19.6851C11.6312 19.8605 11.6312 19.8605 11.6604 20.0394C12.2641 23.6314 13.0348 26.6844 16.1014 28.9027C16.7144 29.3246 17.3208 29.6993 17.9914 30.0196C17.7334 32.9388 17.0689 35.967 14.797 37.9858C14.1391 38.4291 14.007 38.4678 13.2663 38.4433C12.9984 38.4344 12.7304 38.4255 12.4544 38.4164C11.6441 36.5056 11.7739 34.6377 11.8446 32.6048C11.9105 30.547 11.9619 28.449 10.5962 26.7686C9.1062 25.2618 6.94495 24.5875 5.01397 23.8566C3.8361 23.4093 2.91576 22.9599 2.01918 22.0534C1.99256 21.5421 1.99256 21.5421 2.23214 20.9769C4.13739 19.5445 6.59237 19.6267 8.84731 19.6582Z" fill="#FCFDFE"/>
<path d="M9.11341 15.971C9.3834 15.9693 9.6534 15.9677 9.93157 15.966C13.511 15.9735 16.8057 16.8083 19.5444 19.2611C21.257 21.0542 22.0778 23.3084 22.0509 25.7807C22.049 26.0108 22.0471 26.2409 22.0451 26.4779C22.0426 26.6519 22.0402 26.8259 22.0376 27.0052C20.5682 27.0909 19.141 26.9568 17.7783 26.3593C17.2675 25.844 16.9978 25.3016 16.7135 24.6369C16.5905 24.4149 16.4676 24.1928 16.3408 23.9641C15.7993 22.7048 15.8395 21.4626 15.8617 20.1156C14.0219 19.8817 12.1968 19.853 10.3452 19.8485C9.82141 19.8465 9.29777 19.8398 8.774 19.833C6.06861 19.8144 3.52063 19.9589 1.38019 21.838C0.844692 22.4799 0.643086 22.9404 0.528338 23.7757C-0.14313 22.7574 -0.0338714 21.7369 0.102412 20.5462C0.576657 18.9473 1.43746 17.9091 2.87093 17.1013C3.42859 16.8377 3.98505 16.6329 4.57464 16.4554C4.77504 16.38 4.97544 16.3045 5.18191 16.2267C6.45467 15.8631 7.80319 15.963 9.11341 15.971Z" fill="#06A693"/>
<path d="M21.1458 1.37073C21.3976 1.37219 21.3976 1.37219 21.6545 1.37367C22.0661 1.3762 22.4778 1.38006 22.8894 1.38419C22.6344 2.15763 22.4729 2.19971 21.798 2.59526C18.7874 4.58108 17.2447 8.9328 16.5288 12.3595C16.2324 13.8595 15.9962 15.3617 15.8616 16.8859C14.4163 16.716 13.0161 16.3664 11.6024 16.0247C11.3322 11.5627 13.4335 6.74975 16.2368 3.4203C17.8152 1.66859 18.8338 1.34526 21.1458 1.37073Z" fill="#C06913"/>
<path d="M28.8524 14.9481C28.9903 15.043 29.1282 15.1379 29.2703 15.2357C30.75 16.2244 32.2477 16.9677 33.8836 17.6528C37.5004 19.1698 37.5004 19.1698 38.8616 20.546C38.9079 21.6786 38.6828 22.6431 38.0098 23.5602C37.1325 23.4056 36.3931 22.9641 35.6139 22.551C34.2631 21.8449 32.906 21.2652 31.4568 20.7973C30.5074 20.4703 30.0367 20.1021 29.4913 19.2542C28.7859 17.8025 28.794 16.5456 28.8524 14.9481Z" fill="#C06913"/>
<path d="M17.9914 30.2346C18.3198 30.333 18.6481 30.4318 18.9764 30.5307C19.1592 30.5856 19.342 30.6406 19.5304 30.6972C20.1568 30.8916 20.7779 31.0994 21.3988 31.3111C20.8198 33.2539 20.2197 35.0147 19.0562 36.6937C18.8981 36.9246 18.74 37.1555 18.5771 37.3934C17.4204 38.5628 16.2684 39.3514 14.5973 39.3984C13.6364 39.3774 13.6364 39.3774 13.1324 38.9468C13.0492 38.8427 12.966 38.7386 12.8803 38.6314C13.2558 38.5248 13.2558 38.5248 13.639 38.4161C15.0553 37.8605 15.7725 36.8878 16.4291 35.5305C17.1623 33.8174 17.6427 32.0685 17.9914 30.2346Z" fill="#097D70"/>
<path d="M1.80621 21.1923C1.85452 21.3166 1.90284 21.4409 1.95262 21.569C2.55235 22.6084 3.50141 23.0508 4.57473 23.4798C4.78995 23.567 5.00518 23.6541 5.22693 23.7439C5.62048 23.8995 6.01857 24.0442 6.42152 24.1728C7.06358 24.4952 7.26001 24.8448 7.60945 25.4714C7.71597 25.6573 7.82248 25.8433 7.93222 26.0349C8.47524 27.1502 8.42578 28.1555 8.40806 29.3737C8.21013 29.1869 8.0122 29.0002 7.80827 28.8077C6.65872 27.8115 5.31474 27.1796 3.97452 26.4861C2.69676 25.8068 1.50239 25.0879 0.528429 23.9912C0.342086 23.3453 0.342086 23.3453 0.528429 22.6994C0.9122 22.1518 1.33862 21.6678 1.80621 21.1923Z" fill="#097D70"/>
<path d="M11.6023 19.6851C13.0825 19.6278 14.4209 19.7687 15.8616 20.1157C15.8775 20.3164 15.8934 20.5171 15.9098 20.7238C16.1191 22.7751 16.5918 24.3089 17.5653 26.1442C16.0707 25.9721 14.8758 25.4811 13.519 24.8524C13.2686 24.7502 13.0182 24.6481 12.7603 24.5429C11.7313 23.4492 11.6169 21.7014 11.5873 20.2352C11.5923 20.0537 11.5972 19.8721 11.6023 19.6851Z" fill="#C06913"/>
<path d="M18.2042 20.546C18.5016 20.6443 18.7989 20.7431 19.096 20.8421C19.3443 20.9245 19.3443 20.9245 19.5977 21.0086C19.8567 21.0993 19.8567 21.0993 20.1209 21.1919C20.4009 21.2702 20.4009 21.2702 20.6866 21.35C21.1857 21.6225 21.1857 21.6225 21.4761 22.186C21.9504 23.8318 22.1475 25.2923 22.0376 27.0051C20.7996 27.0498 19.8272 26.8974 18.6302 26.5745C18.6324 26.4224 18.6346 26.2704 18.6369 26.1138C18.6458 25.4241 18.6513 24.7344 18.6568 24.0447C18.6604 23.8054 18.6639 23.5662 18.6676 23.3197C18.669 23.0894 18.6703 22.859 18.6718 22.6217C18.674 22.4097 18.6762 22.1977 18.6785 21.9793C18.6291 21.3944 18.5003 21.0453 18.2042 20.546Z" fill="#097D70"/>
<path d="M15.8616 20.1155C16.7741 20.224 17.5946 20.3337 18.4172 20.7614C18.8497 21.4173 18.8964 21.5441 18.8922 22.2803C18.8918 22.4482 18.8914 22.6161 18.891 22.7891C18.8884 22.9637 18.8857 23.1382 18.8831 23.3181C18.8829 23.491 18.8828 23.6639 18.8826 23.842C18.8763 24.7078 18.8415 25.5147 18.6302 26.3592C18.1477 26.3348 18.1477 26.3348 17.5653 26.1439C17.1427 25.5561 17.1427 25.5561 16.7667 24.8117C16.6405 24.5689 16.5142 24.3261 16.3841 24.0759C15.9486 23.0475 15.8317 22.1138 15.8483 21.0036C15.8503 20.8354 15.8522 20.6672 15.8542 20.4939C15.8566 20.369 15.8591 20.2442 15.8616 20.1155Z" fill="#F9FAFB"/>
</svg>
