<svg width="392" height="202" viewBox="0 0 392 202" fill="none" xmlns="http://www.w3.org/2000/svg">
<g clip-path="url(#clip0_506_3696)">
<path opacity="0.24" d="M107.007 32.8381C88.379 42.5058 67.7538 47.7101 48.5912 56.2807C29.4285 64.8513 10.9127 78.026 2.98142 97.5396C0.787649 102.894 -0.524861 108.792 0.197019 114.578C1.83766 127.706 13.219 137.289 24.6941 143.806C49.7443 158.05 78.7039 164.088 104.26 177.413C115.276 183.161 125.626 190.241 137.073 195.051C164.992 206.782 198.733 203.491 223.83 186.509C233.936 179.682 242.693 170.84 253.521 165.251C270.396 156.54 290.337 156.699 309.34 157.262C328.343 157.825 348.162 158.434 365.422 150.454C382.681 142.474 396.238 122.942 390.735 104.732C387.303 93.3481 377.375 85.04 366.819 79.5545C356.262 74.0689 344.694 70.7682 334.118 65.3295C303.678 49.6511 283.399 17.4504 251.393 5.31652C225.696 -4.49185 197.477 0.693646 172.258 9.47055C161.589 13.2214 151.061 12.5462 140.383 15.9407C128.495 19.7103 118.004 27.0712 107.007 32.8381Z" fill="#45C6B6"/>
<path d="M185.786 130.622C132.479 130.622 90.7319 118.291 90.7319 102.547C90.7319 86.8033 132.479 74.4819 185.786 74.4819C239.092 74.4819 280.83 86.8127 280.83 102.547C280.83 118.282 239.083 130.622 185.786 130.622ZM185.786 77.0231C135.639 77.0231 93.2726 88.7163 93.2726 102.547C93.2726 116.379 135.639 128.081 185.786 128.081C235.933 128.081 278.29 116.388 278.29 102.547C278.29 88.7069 235.914 77.0231 185.786 77.0231Z" fill="#45C6B6"/>
<path d="M188.692 157.243C145.182 157.243 104.251 151.992 73.4443 142.456C42.1691 132.769 24.9752 119.698 24.9752 105.632C24.9752 91.5666 42.1972 78.495 73.4725 68.8086C104.279 59.2815 145.211 54.021 188.72 54.021C232.23 54.021 273.171 59.2815 303.968 68.8086C335.253 78.495 352.475 91.576 352.475 105.632C352.475 119.688 335.253 132.769 303.968 142.456C273.143 151.992 232.211 157.243 188.692 157.243ZM188.692 56.6653C145.436 56.6653 104.785 61.8789 74.2319 71.3404C44.5879 80.5111 27.5815 93.0107 27.5815 105.632C27.5815 118.254 44.5879 130.753 74.2319 139.933C104.785 149.395 145.482 154.599 188.692 154.599C231.902 154.599 272.608 149.395 303.162 139.933C332.806 130.753 349.803 118.254 349.803 105.632C349.803 93.0107 332.806 80.5111 303.162 71.3404C272.608 61.9071 231.958 56.6653 188.692 56.6653Z" fill="#45C6B6"/>
<path d="M187.089 53.2991C182.312 53.2406 177.57 54.1334 173.141 55.9255C168.712 57.7176 164.684 60.3732 161.29 63.7375C157.897 67.1019 155.207 71.1078 153.377 75.5221C151.547 79.9364 150.613 84.6708 150.63 89.4496C150.646 94.2283 151.614 98.956 153.475 103.357C155.336 107.759 158.054 111.746 161.471 115.086C164.887 118.426 168.934 121.054 173.376 122.814C177.818 124.575 182.565 125.435 187.342 125.343C196.795 125.161 205.797 121.268 212.406 114.506C219.015 107.743 222.7 98.6529 222.667 89.1963C222.634 79.7398 218.885 70.6755 212.229 63.9596C205.572 57.2437 196.543 53.4148 187.089 53.2991ZM192.433 69.887C192.422 69.7867 192.441 69.6853 192.489 69.5964C192.592 69.4463 192.705 69.2494 192.855 69.2119C193.005 69.1744 193.164 69.3338 193.37 69.437C192.986 69.8214 193.155 70.0371 193.483 70.2059C193.562 70.2437 193.63 70.302 193.68 70.3747C193.766 70.6389 193.886 70.891 194.036 71.1248C194.259 71.3056 194.509 71.4511 194.777 71.5562C194.56 71.7549 194.328 71.9368 194.083 72.1C193.846 72.244 193.59 72.3544 193.323 72.4282C193.105 72.4516 192.885 72.4516 192.667 72.4282C192.671 72.3877 192.671 72.3469 192.667 72.3063L193.117 72.025C192.958 71.8281 192.723 71.6593 192.705 71.4718C192.686 71.2842 192.902 71.0967 193.033 70.881C192.827 70.5435 192.527 70.3934 192.311 70.5341C191.673 70.9654 191.627 71.0779 191.917 71.5374C191.505 71.6968 191.102 71.8562 190.68 72.0063C190.586 71.5655 191.092 71.1811 190.68 70.7872C190.765 70.6431 190.887 70.5244 191.034 70.4436C191.181 70.3628 191.347 70.3228 191.514 70.3278H192.002C192.264 70.3465 192.47 70.2246 192.433 69.887ZM182.12 60.7069C182.964 60.8288 183.808 60.8851 184.651 60.9507C184.805 60.9802 184.964 60.9707 185.113 60.9232C185.262 60.8757 185.396 60.7917 185.505 60.6788C185.598 60.5569 185.823 60.5382 185.992 60.51C186.648 60.4069 187.314 60.285 187.97 60.2193C188.319 60.1726 188.672 60.1726 189.02 60.2193C189.827 60.3412 190.633 60.5006 191.43 60.6507C191.561 60.6681 191.685 60.7235 191.786 60.8101C191.458 60.8101 191.111 60.8101 190.783 60.8851C190.57 60.9005 190.361 60.9512 190.164 61.0351C189.864 61.1852 189.583 61.3446 189.564 61.7947C189.568 62.014 189.496 62.228 189.359 62.3994C189.222 62.5707 189.029 62.6885 188.814 62.7324C188.373 62.8919 187.943 63.0831 187.53 63.3044C187.314 63.4075 187.314 63.5294 187.53 63.6513C187.745 63.7732 188.139 63.9795 188.467 64.1764C187.952 64.3734 187.952 64.3734 186.883 63.8764C187.033 64.1389 187.183 64.3827 187.342 64.6359C186.658 64.8141 185.945 65.0204 185.233 65.1798C184.57 65.2929 183.951 65.5847 183.442 66.0237C182.924 66.3879 182.312 66.5961 181.68 66.6238C181.351 66.6895 181.08 66.7458 181.08 67.1865C181.08 67.3459 180.93 67.5334 180.798 67.6647C180.622 67.8283 180.427 67.9699 180.217 68.0867C180.047 68.2087 179.847 68.281 179.638 68.2954C179.43 68.3099 179.222 68.266 179.037 68.1686C178.852 68.0713 178.697 67.9243 178.591 67.7442C178.485 67.5641 178.431 67.358 178.436 67.149C178.408 66.9216 178.408 66.6918 178.436 66.4644C178.509 66.1928 178.617 65.9314 178.755 65.6861C178.829 65.5866 178.914 65.4954 179.008 65.4142C179.225 65.236 179.391 65.0031 179.488 64.7397C179.586 64.4762 179.612 64.1915 179.563 63.9148C179.514 63.6381 179.393 63.3793 179.211 63.1649C179.03 62.9506 178.794 62.7883 178.53 62.6949C178.02 62.3902 177.451 62.1983 176.861 62.1322C176.66 62.0724 176.47 61.9806 176.298 61.8603C177.095 61.729 177.864 61.6259 178.614 61.4852C178.934 61.3911 179.247 61.2752 179.551 61.1383C180.352 60.7741 181.235 60.6254 182.111 60.7069H182.12ZM190.005 66.1644C190.004 66.2566 189.983 66.3476 189.942 66.4304C189.902 66.5133 189.843 66.5858 189.77 66.6426C189.472 66.825 189.158 66.9818 188.833 67.1115C188.686 67.1873 188.517 67.2092 188.356 67.1732C188.195 67.1372 188.052 67.0456 187.952 66.9145C187.848 66.7926 187.633 66.7551 187.473 66.6801C187.47 66.6364 187.47 66.5925 187.473 66.5488C187.626 66.4753 187.783 66.4095 187.942 66.3519C188.458 66.2113 188.955 66.08 189.461 65.9581C189.62 65.9018 189.911 65.9018 189.977 66.1644H190.005ZM172.07 61.8322C172.305 61.7572 172.548 61.7103 172.801 61.6446C173.055 61.579 173.373 61.5227 173.486 61.157C173.521 61.0824 173.572 61.0163 173.635 60.9629C173.698 60.9095 173.772 60.8702 173.851 60.8476L174.208 60.782C174.583 60.7069 174.967 60.6413 175.351 60.585C175.667 60.572 175.981 60.5281 176.289 60.4538C176.844 60.2407 177.439 60.1511 178.033 60.1912C178.217 60.2005 178.402 60.2005 178.586 60.1912H179.12C179.115 60.2348 179.115 60.2789 179.12 60.3225C178.482 60.8191 177.726 61.1421 176.926 61.2602C175.821 61.4433 174.766 61.8588 173.833 62.4792C173.533 62.6667 173.233 62.8168 173.008 62.3667C173.008 62.2823 172.801 62.2354 172.67 62.2166C172.379 62.1893 172.091 62.1392 171.808 62.0666C171.881 61.9773 171.966 61.8984 172.061 61.8322H172.07ZM170.195 62.8637C170.195 62.8637 170.139 62.8637 170.092 62.8074C170.373 62.3385 170.673 62.1979 171.151 62.4229C171.379 62.5381 171.627 62.6073 171.881 62.6266C172.135 62.6459 172.39 62.6149 172.633 62.5355C172.66 62.558 172.685 62.5832 172.708 62.6105C172.633 62.7136 172.586 62.8637 172.492 62.9012C172.398 62.9387 172.014 63.0137 171.77 63.0981C171.716 63.1203 171.667 63.1547 171.628 63.1986C171.589 63.2424 171.561 63.2947 171.545 63.3513C171.545 63.4075 171.658 63.5482 171.742 63.5763L172.061 63.6607L174.573 64.3734C174.613 64.3984 174.648 64.4312 174.676 64.4698C174.703 64.5085 174.722 64.5522 174.733 64.5984C174.727 64.7251 174.708 64.8508 174.676 64.9735C174.526 65.6393 174.676 65.9112 175.398 65.9112C175.405 66.0278 175.368 66.1428 175.296 66.2343C175.223 66.3259 175.12 66.3877 175.005 66.4082C174.555 66.5207 174.067 66.6707 173.673 66.8114C173.458 66.877 173.242 66.9427 173.308 67.2427C173.302 67.315 173.268 67.3822 173.214 67.4303C173.026 67.5674 172.8 67.6414 172.567 67.6414C172.334 67.6414 172.108 67.5674 171.92 67.4303C171.841 67.3431 171.787 67.2364 171.763 67.1212C171.74 67.006 171.748 66.8866 171.786 66.7755C171.824 66.6643 171.892 66.5655 171.981 66.4893C172.071 66.4131 172.179 66.3625 172.295 66.3425C172.558 66.2769 172.839 66.2581 173.111 66.1831C173.234 66.1566 173.342 66.0825 173.411 65.9768C173.411 65.9112 173.326 65.7518 173.242 65.6674C172.722 65.178 172.07 64.852 171.367 64.7297C171.161 64.7297 170.936 64.6734 170.72 64.6547C170.214 64.6547 169.698 64.5703 169.183 64.514C168.967 64.514 168.695 64.514 168.676 64.1858C168.663 64.1172 168.666 64.0466 168.685 63.9792C168.703 63.9119 168.737 63.8497 168.783 63.7972C168.829 63.7448 168.886 63.7036 168.951 63.6767C169.015 63.6498 169.085 63.6379 169.154 63.6419C169.497 63.6313 169.839 63.5968 170.176 63.5388C170.326 63.5388 170.542 63.4075 170.561 63.3044C170.57 63.0231 170.42 62.8449 170.158 62.8449L170.195 62.8637ZM174.648 72.8221C174.78 72.9721 175.014 73.2065 174.976 73.3284C174.945 73.4574 174.865 73.5694 174.753 73.641C174.642 73.7126 174.507 73.7383 174.376 73.7129C173.919 73.6535 173.459 73.619 172.998 73.6097C173.393 73.0342 173.956 72.5953 174.611 72.3532L174.283 72.6439C174.401 72.6843 174.512 72.7445 174.611 72.8221H174.648ZM175.914 104.92C175.544 105.16 175.204 105.443 174.901 105.764C174.727 106.05 174.612 106.369 174.564 106.701C174.431 107.301 174.265 107.892 174.067 108.474C173.926 108.802 173.523 109.017 173.27 109.317C173.079 109.573 172.8 109.749 172.486 109.812C172.173 109.874 171.848 109.818 171.573 109.655C171.433 110.058 171.705 110.321 171.873 110.593C172.117 111.033 172.117 111.033 171.695 111.324C171.323 111.618 170.966 111.931 170.626 112.262C170.499 112.378 170.407 112.527 170.359 112.693C170.311 112.858 170.309 113.033 170.354 113.2C170.354 113.516 170.313 113.831 170.233 114.137C170.188 114.293 170.166 114.454 170.167 114.616C170.167 114.925 170.298 115.225 170.336 115.553C170.401 116.069 170.439 116.603 170.486 117.129C170.486 117.325 170.561 117.447 170.795 117.466C170.853 117.48 170.908 117.507 170.955 117.544C171.002 117.581 171.04 117.628 171.067 117.682C171.208 117.982 171.33 118.282 171.451 118.619C171.371 118.683 171.279 118.73 171.18 118.757C171.081 118.784 170.977 118.791 170.876 118.777C170.774 118.763 170.676 118.728 170.588 118.676C170.5 118.623 170.424 118.553 170.364 118.469C170.173 118.111 169.86 117.832 169.483 117.682C168.866 117.415 168.369 116.931 168.086 116.322C167.671 115.723 167.461 115.006 167.486 114.278C167.545 114.028 167.511 113.766 167.39 113.539C167.27 113.313 167.07 113.139 166.829 113.05C166.726 113.05 166.661 112.824 166.642 112.693C166.586 112.187 166.558 111.662 166.511 111.155C166.408 110.058 166.276 108.971 166.211 107.883C166.211 107.067 166.211 106.242 166.211 105.426C166.211 105.051 166.211 104.685 166.211 104.329C166.173 103.853 165.992 103.4 165.693 103.029C165.393 102.658 164.989 102.385 164.533 102.247C164.286 102.202 164.065 102.069 163.909 101.872C163.754 101.675 163.676 101.429 163.689 101.178C163.697 100.955 163.64 100.734 163.525 100.543C163.41 100.352 163.243 100.198 163.042 100.1C162.497 99.7988 162.085 99.3033 161.889 98.712C161.815 98.5338 161.703 98.3738 161.561 98.2432C161.415 98.1047 161.308 97.9307 161.251 97.7382C161.193 97.5458 161.187 97.3417 161.233 97.1461C161.246 96.876 161.227 96.6052 161.176 96.3397C161.138 96.1611 161.122 95.9783 161.129 95.7958C161.204 95.269 161.396 94.7657 161.692 94.3236C162.014 93.8491 162.282 93.3395 162.489 92.8045C162.606 92.5157 162.623 92.1958 162.536 91.8964C162.449 91.597 162.264 91.3356 162.011 91.1542C161.925 91.1175 161.832 91.0987 161.739 91.0987C161.645 91.0987 161.553 91.1175 161.467 91.1542C161.298 91.2667 161.096 91.3211 160.893 91.3093C160.691 91.2974 160.497 91.22 160.342 91.0885C159.669 90.6641 159.117 90.073 158.739 89.3725C158.673 89.2738 158.578 89.1983 158.467 89.1568C158.302 89.0918 158.128 89.0538 157.951 89.0443C157.478 89.0102 157.037 88.7913 156.723 88.4348C156.536 88.2372 156.306 88.0854 156.051 87.991C155.795 87.8967 155.522 87.8625 155.251 87.891C155.177 87.91 155.1 87.91 155.026 87.891C153.932 87.6083 152.937 87.031 152.148 86.2218C152.031 86.0652 151.949 85.8856 151.907 85.6948C151.865 85.504 151.864 85.3065 151.904 85.1154C152.186 82.9217 152.682 80.7609 153.386 78.6639C154.446 75.4355 155.975 72.3803 157.923 69.5964C158.645 68.5555 159.479 67.5709 160.267 66.5676C160.379 66.4176 160.501 66.3425 160.67 66.4644C160.787 66.5354 160.917 66.582 161.052 66.6013C161.188 66.6206 161.325 66.6124 161.458 66.577C162.104 66.5019 162.761 66.5301 163.389 66.3988C164.146 66.2374 164.887 66.0051 165.601 65.7049C165.866 65.5547 166.093 65.3454 166.264 65.0934C166.434 64.8413 166.545 64.5531 166.586 64.2515C166.629 64.0827 166.686 63.9139 166.754 63.7451C166.942 63.1262 166.942 63.1262 167.57 63.2669C168.02 63.3794 168.508 63.4825 168.883 63.5669C168.517 63.6982 168.133 63.8201 167.767 63.9701C167.401 64.1202 167.514 64.2046 167.673 64.3827C167.833 64.5609 168.17 65.011 168.433 65.3204C168.517 65.3955 168.704 65.4611 168.77 65.4236C169.3 65.213 169.873 65.1357 170.439 65.1985C170.293 65.4481 170.12 65.6809 169.923 65.8924C169.721 66.0486 169.482 66.1518 169.229 66.1925C168.583 66.3238 167.917 66.4082 167.261 66.5113C167.223 66.7315 167.107 66.9309 166.936 67.0736C166.764 67.2162 166.547 67.2929 166.323 67.2896C165.474 67.4308 164.677 67.7966 164.017 68.3492C163.781 68.4771 163.602 68.6882 163.513 68.9413C163.425 69.1945 163.434 69.4715 163.539 69.7183C163.604 69.9246 163.67 70.1965 164.008 70.0183C164.054 70.0183 164.167 70.0183 164.242 70.084C164.561 70.2528 164.861 70.4309 165.179 70.5903C165.498 70.7497 165.704 70.9185 166.051 70.7966C166.126 70.7966 166.229 70.7966 166.229 70.7966C166.145 71.3217 166.061 71.7906 165.967 72.3157C166.15 72.3256 166.333 72.2876 166.498 72.2054C166.662 72.1232 166.802 71.9996 166.904 71.8469C167.514 70.9092 168.161 70.1027 168.779 69.24C168.879 69.1187 168.97 68.9902 169.051 68.8556C169.223 68.524 169.502 68.2597 169.842 68.105C170.181 67.9503 170.563 67.9141 170.926 68.0023C171.358 68.0679 171.648 68.1617 171.611 68.6774C171.611 68.7524 171.817 68.8837 171.93 68.9025C172.503 68.945 173.075 68.8109 173.57 68.518C173.601 68.5967 173.623 68.6784 173.636 68.7618C173.65 68.8739 173.65 68.9873 173.636 69.0994C173.523 69.5236 173.568 69.9744 173.763 70.3677C173.958 70.761 174.289 71.0701 174.695 71.2373L174.864 71.3217C174.241 71.9157 173.426 72.2682 172.567 72.3157C171.971 72.3125 171.386 72.4678 170.87 72.7658C170.439 72.9667 169.994 73.136 169.539 73.2722C169.378 73.3687 169.233 73.4888 169.108 73.6285L169.164 73.741L170.861 73.591C170.795 74.0036 170.861 74.2474 171.301 74.2849C171.461 74.2849 171.601 74.5287 171.808 74.6975C171.086 74.8381 170.711 75.6352 169.783 75.4476L170.514 74.7725C170.176 74.388 170.083 74.3505 169.633 74.6412C169.183 74.9319 168.779 75.2695 168.348 75.5789C168.236 75.6633 168.133 75.7946 168.011 75.8133C167.261 75.954 166.895 76.5729 166.408 77.0605L166.304 77.1636C166.209 77.2906 166.088 77.3956 165.949 77.4717C165.81 77.5477 165.656 77.593 165.498 77.6044C165.35 77.6037 165.207 77.657 165.095 77.7544C164.963 77.8707 164.877 78.0302 164.851 78.2045C164.88 78.5202 164.81 78.8371 164.653 79.1121C164.495 79.3872 164.257 79.6072 163.97 79.7423C163.45 80.0111 162.954 80.3248 162.489 80.68C162.291 80.8831 162.158 81.1403 162.106 81.419C162.055 81.6977 162.087 81.9854 162.198 82.246C162.286 82.4272 162.332 82.6259 162.332 82.8274C162.332 83.0288 162.286 83.2275 162.198 83.4087C162.198 83.5025 161.945 83.5775 161.804 83.5775C161.664 83.5775 161.57 83.4462 161.542 83.3431C161.429 82.8742 161.345 82.4054 161.233 81.9178C161.168 81.7593 161.086 81.6083 160.989 81.4677H160.895C160.895 81.6459 160.895 81.824 160.895 82.0022C160.871 82.0349 160.839 82.0607 160.801 82.0772C160.67 81.9365 160.558 81.7959 160.426 81.674C160.248 81.5065 160.049 81.3616 159.836 81.2426C159.726 81.1899 159.6 81.182 159.485 81.2205C159.369 81.259 159.273 81.3409 159.217 81.4489C158.983 81.749 158.72 82.0303 158.486 82.3022C158.293 82.0651 158.086 81.8396 157.867 81.6271C157.821 81.5881 157.766 81.5602 157.708 81.5456C157.649 81.531 157.588 81.53 157.529 81.5427C157.073 81.6139 156.659 81.8509 156.367 82.2085C156.063 82.5781 155.724 82.9172 155.354 83.2212C155.19 83.3386 155.074 83.5123 155.029 83.7093C154.984 83.9064 155.013 84.113 155.111 84.2902C155.154 84.4499 155.154 84.6181 155.111 84.7778C155.026 85.2165 155.111 85.6709 155.347 86.0499C155.584 86.429 155.955 86.7047 156.386 86.822C156.614 86.9001 156.862 86.8949 157.087 86.8073C157.312 86.7198 157.498 86.5556 157.614 86.3437C157.708 86.1374 157.773 85.9218 157.867 85.7155C157.885 85.6537 157.917 85.5965 157.959 85.5479C158.001 85.4993 158.053 85.4603 158.112 85.4337C158.171 85.407 158.234 85.3932 158.299 85.3933C158.363 85.3934 158.427 85.4073 158.486 85.4342C158.559 85.5085 158.614 85.5989 158.647 85.6981C158.679 85.7974 158.688 85.9028 158.673 86.0062C158.592 86.3604 158.486 86.7082 158.354 87.047C158.233 87.4409 158.354 87.6096 158.72 87.7034C159.086 87.7972 159.32 87.7972 159.658 87.8347C159.74 87.8295 159.822 87.8436 159.897 87.8759C159.973 87.9083 160.04 87.9579 160.093 88.0209C160.146 88.0838 160.183 88.1583 160.202 88.2383C160.221 88.3184 160.221 88.4018 160.201 88.4817C160.159 88.9245 160.159 89.3704 160.201 89.8132C160.272 90.0705 160.412 90.3038 160.604 90.4884C160.675 90.5325 160.756 90.5559 160.839 90.5559C160.922 90.5559 161.003 90.5325 161.073 90.4884C161.21 90.3979 161.368 90.3429 161.531 90.3281C161.695 90.3134 161.86 90.3395 162.011 90.404C162.123 90.4509 162.254 90.479 162.367 90.5165C162.911 90.6478 163.051 90.5165 163.426 90.1508C163.665 89.9194 163.941 89.7292 164.242 89.5882C164.288 89.5743 164.338 89.574 164.384 89.5873C164.431 89.6006 164.472 89.6269 164.504 89.6632C164.528 89.7014 164.54 89.7452 164.54 89.7898C164.54 89.8344 164.528 89.8782 164.504 89.9164C164.204 90.1789 164.364 90.3102 164.626 90.4228L165.264 90.6947C164.851 90.0289 165.395 89.8039 165.639 89.4007C165.733 89.4757 165.836 89.5226 165.92 89.5976C166.093 89.7907 166.308 89.9411 166.549 90.0371C166.79 90.1331 167.049 90.172 167.308 90.1508H167.383C168.083 90.1587 168.753 90.4338 169.258 90.9197C169.964 91.5306 170.811 91.956 171.723 92.1575C171.919 92.1913 172.105 92.2687 172.268 92.3839C172.43 92.4992 172.564 92.6493 172.661 92.8233C172.83 93.1046 173.045 93.3578 173.214 93.6297C173.486 94.061 173.401 94.3611 172.951 94.5674L172.52 94.7831C172.633 94.9987 172.773 95.0644 172.98 94.9425C173.132 94.8553 173.296 94.7891 173.467 94.7456C173.589 94.7456 173.72 94.8487 173.823 94.9331C173.926 95.0175 173.767 95.0831 173.739 95.1675C173.711 95.2519 173.683 95.3738 173.739 95.3832C173.817 95.4333 173.909 95.4564 174.001 95.4488C174.078 95.44 174.148 95.4033 174.198 95.3457C174.273 95.2617 174.365 95.1944 174.467 95.1484C174.57 95.1023 174.681 95.0785 174.794 95.0785C174.906 95.0785 175.017 95.1023 175.12 95.1484C175.222 95.1944 175.314 95.2617 175.389 95.3457C175.436 95.3926 175.53 95.4207 175.53 95.4582C175.586 96.0865 176.008 95.8333 176.28 95.7302C176.411 95.6797 176.552 95.6578 176.692 95.6659C176.833 95.674 176.97 95.7118 177.095 95.777C177.742 96.0583 178.426 96.2834 179.111 96.5272C179.211 96.5535 179.3 96.6117 179.364 96.6928C179.428 96.774 179.464 96.8738 179.467 96.9773C179.539 97.5069 179.492 98.0459 179.33 98.5552C179.168 99.0645 178.895 99.5313 178.53 99.9217C178.477 99.9926 178.405 100.048 178.323 100.081C178.023 100.212 178.005 100.456 177.995 100.728C177.998 101.426 177.964 102.125 177.892 102.819C177.803 103.247 177.655 103.661 177.451 104.048C177.301 104.366 177.151 104.695 176.645 104.61C176.486 104.609 176.33 104.662 176.205 104.76C176.083 104.788 175.989 104.863 175.914 104.92ZM213.658 102.107C213.377 102.8 213.208 103.551 212.974 104.263C212.897 104.476 212.793 104.678 212.664 104.863C212.317 105.529 212.317 105.529 211.595 105.398C211.319 105.304 211.091 105.104 210.961 104.842C210.831 104.581 210.809 104.278 210.902 104.001C211.092 103.767 211.25 103.508 211.37 103.232C211.44 102.923 211.44 102.603 211.37 102.294C211.358 102.08 211.413 101.867 211.527 101.686C211.642 101.504 211.81 101.363 212.008 101.281C212.113 101.269 212.212 101.223 212.289 101.15C212.645 100.794 213.011 100.419 213.349 100.044C213.427 99.9259 213.493 99.8002 213.545 99.6685C213.868 100.444 213.902 101.309 213.639 102.107H213.658ZM220.492 83.5588C220.389 83.427 220.254 83.3236 220.1 83.258C219.946 83.1925 219.778 83.1669 219.611 83.1837C218.452 83.2519 217.291 83.0696 216.208 82.6492C215.43 82.4509 214.687 82.1347 214.005 81.7115C213.447 81.417 212.846 81.2144 212.224 81.1114C212.259 81.208 212.281 81.3089 212.289 81.4114C212.149 82.2741 212.795 82.6773 213.292 83.1743C213.508 83.3806 213.714 83.5963 213.949 83.8494L215.439 83.4462C215.614 83.3901 215.802 83.3958 215.973 83.4624C216.144 83.529 216.286 83.6524 216.377 83.8119C216.635 84.1208 216.914 84.4122 217.211 84.684C217.474 84.9747 217.408 85.0497 217.108 85.2748C216.291 85.7317 215.554 86.3175 214.924 87.0095C214.852 87.1123 214.759 87.1986 214.652 87.2627C214.174 87.5721 213.714 87.8628 213.217 88.2004C213.053 88.2939 212.87 88.3507 212.681 88.3668C212.493 88.383 212.303 88.3582 212.125 88.294C211.947 88.2299 211.784 88.128 211.649 87.9953C211.514 87.8626 211.41 87.7022 211.342 87.5253C211.132 86.8335 210.777 86.1943 210.302 85.6498C210.067 85.3048 209.881 84.9294 209.749 84.534C209.553 84.1229 209.222 83.7917 208.811 83.5963C208.622 83.5268 208.452 83.4144 208.313 83.2679C208.175 83.1215 208.073 82.945 208.014 82.7523C207.827 82.2178 207.555 81.6927 207.33 81.1582C206.795 81.3833 206.795 81.3833 206.945 81.9084C207.208 82.8149 207.603 83.6775 208.117 84.4683C209.016 85.69 209.771 87.0116 210.367 88.4067C210.499 88.7818 210.592 89.185 210.742 89.5507C210.967 90.1039 211.22 90.1696 211.736 89.8695C211.789 89.8313 211.85 89.8057 211.914 89.7945H213.939C213.862 90.3381 213.752 90.8766 213.611 91.4073C213.492 91.8563 213.275 92.2728 212.974 92.6263C212.506 93.0246 212.008 93.3852 211.483 93.7047C211.35 93.7887 211.24 93.9048 211.164 94.0423C210.583 95.1113 210.03 96.1802 209.458 97.2398C209.308 97.5118 209.261 97.7275 209.458 97.9525C210.255 98.8058 210.02 99.8279 210.03 100.869C210.03 100.981 209.852 101.122 209.72 101.197C209.073 101.484 208.494 101.906 208.024 102.435C207.838 102.664 207.71 102.934 207.649 103.222C207.538 104.083 207.261 104.915 206.833 105.67C206.186 106.767 205.614 107.92 205.024 109.046C204.976 109.17 204.895 109.278 204.789 109.357C204.682 109.437 204.556 109.485 204.424 109.496L202.689 109.599C202.436 109.599 202.192 109.674 201.939 109.693C201.823 109.701 201.708 109.672 201.611 109.608C201.405 109.449 201.227 109.252 201.067 109.111C201.077 108.532 200.928 107.961 200.636 107.461C200.525 107.279 200.399 107.107 200.261 106.945C199.878 106.395 199.672 105.74 199.67 105.07C199.639 104.7 199.527 104.341 199.342 104.019C198.911 103.364 198.641 102.615 198.555 101.835C198.557 101.396 198.636 100.961 198.789 100.55C198.845 100.373 198.92 100.203 199.014 100.044C199.19 99.6916 199.224 99.2851 199.108 98.909C198.83 97.6112 198.281 96.3871 197.495 95.3176C197.413 95.175 197.37 95.0133 197.37 94.8487C197.37 94.6841 197.413 94.5224 197.495 94.3799C197.617 94.1323 197.751 93.8912 197.898 93.6578C198.039 93.4515 198.03 93.2827 197.777 93.189C197.654 93.1534 197.544 93.0846 197.458 92.9903C197.372 92.896 197.313 92.7798 197.289 92.6545C197.289 92.5795 197.073 92.4669 196.97 92.4763C196.719 92.5037 196.465 92.4732 196.228 92.387C195.991 92.3009 195.777 92.1614 195.602 91.9793C195.423 91.8012 195.03 91.8012 194.72 91.7824C194.496 91.7944 194.275 91.8386 194.064 91.9137L190.98 92.6545C190.732 92.7108 190.473 92.6996 190.231 92.6221C189.988 92.5446 189.771 92.4036 189.602 92.2138C189.511 92.1133 189.41 92.0222 189.302 91.9418C189.079 91.8095 188.894 91.6232 188.763 91.4003C188.632 91.1774 188.559 90.925 188.552 90.6665C188.533 90.5539 188.487 90.4473 188.419 90.3559C188.35 90.2646 188.261 90.191 188.158 90.1414C187.22 89.8414 187.089 88.9974 186.836 88.266C186.82 88.1517 186.827 88.0353 186.858 87.9241C186.889 87.8128 186.942 87.7089 187.014 87.619C187.132 87.5132 187.213 87.3723 187.245 87.217C187.277 87.0617 187.259 86.9003 187.192 86.7563C187.021 86.3733 186.95 85.9535 186.984 85.5355C187.019 85.1176 187.158 84.7151 187.389 84.3652C187.625 83.8471 187.989 83.3982 188.448 83.0618C188.627 82.9399 188.673 82.6304 188.842 82.4898C189.358 82.011 189.723 81.3917 189.892 80.7081C190.037 80.4294 190.242 80.186 190.492 79.9955C190.867 79.6392 191.27 79.311 191.645 78.9546C191.852 78.7671 191.992 78.7484 192.142 79.0109C192.177 79.0619 192.223 79.1044 192.277 79.1352C192.33 79.166 192.39 79.1844 192.452 79.1891L194.158 78.964C194.324 78.9162 194.493 78.8817 194.664 78.8609C195.487 78.8792 196.303 78.7024 197.045 78.3451C197.218 78.2804 197.407 78.2804 197.58 78.3451C197.636 78.3451 197.636 78.5983 197.627 78.739C197.631 78.9331 197.679 79.1237 197.769 79.2961C197.858 79.4684 197.986 79.6179 198.142 79.7329L198.977 80.5394C199.033 80.5862 199.098 80.6613 199.164 80.6706C199.727 80.7644 200.298 80.8676 200.88 80.9144C201.161 80.9144 201.348 80.8113 201.442 80.4643C201.536 80.1174 201.827 80.0049 202.024 79.7798C202.02 79.8204 202.02 79.8612 202.024 79.9017C202.141 80.0264 202.273 80.1366 202.417 80.2299C202.714 80.3984 203.028 80.5337 203.355 80.6331C203.6 80.6704 203.85 80.6704 204.095 80.6331C204.236 80.6191 204.377 80.6191 204.517 80.6331C205.117 80.7175 205.708 80.7925 206.308 80.9144C206.404 80.9365 206.504 80.9324 206.598 80.9027C206.692 80.8731 206.776 80.8188 206.842 80.7457C207.103 80.6111 207.309 80.3887 207.422 80.1177C207.535 79.8467 207.549 79.5444 207.461 79.2641C207.403 79.0108 207.362 78.7539 207.339 78.4952C207.152 78.4243 206.951 78.396 206.752 78.4122C206.553 78.4285 206.359 78.4888 206.186 78.5889C205.979 78.7252 205.732 78.7873 205.485 78.7652C205.238 78.7431 205.006 78.638 204.827 78.467C204.231 78.1008 203.793 77.5258 203.599 76.8542C204.18 77.1449 204.414 76.7886 204.686 76.2728C203.964 76.4416 203.317 76.5729 202.68 76.751C202.616 76.7657 202.557 76.7957 202.507 76.8384C202.457 76.8811 202.419 76.9353 202.395 76.9962C202.371 77.0572 202.362 77.1231 202.369 77.1882C202.376 77.2533 202.399 77.3157 202.436 77.3699C202.483 77.4421 202.506 77.5275 202.502 77.6137C202.476 77.7595 202.432 77.9014 202.37 78.0357C202.192 77.9607 201.93 77.9325 201.855 77.7825C201.78 77.6325 201.677 77.3043 201.377 77.2105C201.354 77.2001 201.335 77.1844 201.32 77.1647C201.306 77.1451 201.296 77.1222 201.292 77.098C201.348 76.4885 200.814 76.1603 200.561 75.7477C200.506 75.6914 200.44 75.6467 200.368 75.6161C200.296 75.5855 200.218 75.5697 200.139 75.5695C199.943 75.5716 199.749 75.5257 199.574 75.4358C199.399 75.3459 199.249 75.2148 199.136 75.0538C199.046 74.9155 198.932 74.7948 198.798 74.6975C198.602 74.5474 198.358 74.4443 198.17 74.6975C198.119 74.7415 198.078 74.7961 198.049 74.8576C198.021 74.9191 198.006 74.9861 198.006 75.0538C198.006 75.1215 198.021 75.1884 198.049 75.25C198.078 75.3115 198.119 75.3661 198.17 75.4101C198.517 75.8211 198.958 76.1427 199.455 76.3478C199.609 76.4164 199.748 76.5158 199.862 76.64C199.977 76.7642 200.065 76.9104 200.12 77.0699C199.997 77.1694 199.852 77.2388 199.697 77.2725C199.542 77.3063 199.381 77.3035 199.227 77.2644C199.074 77.2253 198.931 77.1509 198.811 77.0471C198.691 76.9434 198.597 76.8131 198.536 76.6667C198.414 76.4883 198.276 76.3219 198.123 76.1697C197.887 75.8567 197.627 75.562 197.345 75.2882C196.961 74.9413 196.211 74.9131 196.127 75.5789C196.114 75.6493 196.095 75.7183 196.07 75.7852L195.817 75.7102C195.601 75.627 195.361 75.627 195.145 75.7101C194.928 75.7932 194.75 75.9536 194.645 76.1603C194.552 76.3009 194.411 76.4228 194.308 76.5541C194.201 76.6554 194.115 76.7764 194.055 76.9104C193.991 77.1814 193.851 77.4286 193.652 77.623C193.453 77.8173 193.202 77.9507 192.93 78.0076C192.217 78.1285 191.496 78.1881 190.773 78.1857C190.698 78.1653 190.63 78.1262 190.574 78.0721C190.518 78.018 190.477 77.9506 190.455 77.8763C190.394 77.378 190.394 76.8742 190.455 76.376C190.508 76.1255 190.651 75.9029 190.856 75.7495C191.061 75.596 191.315 75.5221 191.57 75.5414H193.089C193.277 75.5414 193.398 75.4851 193.38 75.2507C193.37 75.1634 193.37 75.0754 193.38 74.9882C193.483 74.388 193.455 74.3224 192.911 74.0036C192.752 73.9098 192.573 73.8442 192.414 73.7504C192.255 73.6566 192.236 73.6097 192.245 73.5441C192.255 73.4974 192.277 73.454 192.308 73.4179C192.339 73.3818 192.379 73.3543 192.423 73.3378C192.612 73.28 192.807 73.2454 193.005 73.2347C193.399 73.2437 193.787 73.1365 194.12 72.9263C194.454 72.7162 194.718 72.4125 194.88 72.0532C194.957 71.8456 195.091 71.6641 195.267 71.5297C195.443 71.3953 195.653 71.3134 195.873 71.2936C196.595 71.1811 196.727 70.9935 196.811 70.2528C196.857 70.062 196.923 69.8765 197.008 69.6995H197.158C197.283 69.9498 197.386 70.2101 197.467 70.4778C197.487 70.6158 197.551 70.7439 197.649 70.8434C197.746 70.9429 197.873 71.0086 198.011 71.031C198.285 71.0546 198.561 71.0546 198.836 71.031C199.314 70.9654 199.773 70.8716 200.252 70.806C200.42 70.806 200.523 70.806 200.58 70.5528C200.636 70.2996 200.861 70.2153 201.02 70.0558C201.18 69.8964 201.395 69.8214 201.405 69.5213C201.454 69.3568 201.554 69.2121 201.69 69.1077C201.827 69.0033 201.992 68.9446 202.164 68.94C202.317 68.974 202.451 69.0644 202.539 69.1932C202.631 69.3691 202.703 69.5547 202.755 69.7464C203.001 69.5243 203.181 69.2392 203.277 68.9219C203.373 68.6046 203.38 68.2672 203.299 67.946C203.108 68.0027 202.914 68.0434 202.717 68.0679C202.444 68.1056 202.166 68.1056 201.892 68.0679C201.105 67.8991 200.955 67.5334 201.405 66.877C201.555 66.6426 201.723 66.1737 201.648 66.1269C201.348 65.9018 201.077 66.1831 200.87 66.3707C200.359 66.7837 199.986 67.3432 199.802 67.9741C199.657 68.5302 199.43 69.0613 199.127 69.5495C199.005 69.7558 198.611 69.8402 198.33 69.8777C198.227 69.8777 198.058 69.6526 197.945 69.5026C197.837 69.3404 197.74 69.1712 197.655 68.9962C197.651 69.0368 197.651 69.0776 197.655 69.1181L195.986 69.2025C195.958 69.1263 195.936 69.0479 195.92 68.9681C195.677 67.7678 195.564 67.9272 196.727 67.4678C197.081 67.2718 197.399 67.0147 197.664 66.7082L198.452 66.0331C198.505 65.9935 198.553 65.9461 198.592 65.8924C199.38 64.8422 200.552 64.6734 201.733 64.4859C202.792 64.4465 203.847 64.6352 204.827 65.0391L206.514 65.5361C205.745 66.155 205.052 65.5361 204.395 65.6486C204.395 65.6486 204.349 65.7237 204.395 65.733C204.77 66.1434 205.171 66.5287 205.595 66.8864C205.674 66.9255 205.761 66.9461 205.849 66.9467C205.937 66.9473 206.024 66.928 206.104 66.89C206.183 66.8521 206.253 66.7966 206.308 66.7278C206.363 66.6589 206.401 66.5785 206.42 66.4926C206.486 66.2581 206.589 66.1456 206.842 66.1456C207 66.1422 207.154 66.0924 207.284 66.0024C207.414 65.9124 207.515 65.7861 207.574 65.6393C207.705 65.3861 207.874 65.2735 208.145 65.3767C208.145 65.6674 208.239 65.7987 208.53 65.7049C208.64 65.6702 208.744 65.6197 208.839 65.5549C209.176 65.348 209.571 65.259 209.964 65.3017C210.516 65.2726 211.06 65.1587 211.577 64.9641C212.074 64.8328 212.336 64.8797 212.589 65.161C214.916 67.5725 216.892 70.2999 218.458 73.2628C220.335 76.7744 221.603 80.5793 222.208 84.5152C222.213 84.5557 222.213 84.5966 222.208 84.6371C221.336 84.6934 220.914 84.0464 220.474 83.5588H220.492Z" fill="#45C6B6"/>
<path d="M222.217 84.5059C221.327 84.6934 220.933 84.0464 220.464 83.5682C220.365 83.4322 220.23 83.3256 220.075 83.2596C219.92 83.1936 219.75 83.1706 219.583 83.1931C217.608 83.196 215.667 82.6751 213.958 81.6834C213.405 81.3797 212.801 81.1795 212.177 81.0926C212.212 81.1827 212.234 81.2775 212.242 81.3739C212.102 82.246 212.739 82.6492 213.246 83.1462C213.461 83.3525 213.658 83.5682 213.902 83.8213L215.392 83.4181C215.566 83.3611 215.754 83.3654 215.924 83.4303C216.095 83.4951 216.238 83.6167 216.33 83.7745C216.585 84.0862 216.861 84.3807 217.155 84.6559C217.427 84.9466 217.361 85.031 217.052 85.2467C216.24 85.7062 215.505 86.2917 214.877 86.9814C214.803 87.0797 214.711 87.1626 214.605 87.2252C214.127 87.544 213.667 87.8441 213.171 88.1629C213.007 88.2583 212.824 88.3168 212.636 88.3344C212.447 88.352 212.257 88.3283 212.079 88.265C211.9 88.2016 211.738 88.1001 211.602 87.9675C211.467 87.8349 211.362 87.6744 211.296 87.4971C211.085 86.8054 210.73 86.1662 210.255 85.6217C210.021 85.2799 209.835 84.9076 209.702 84.5152C209.523 84.0813 209.189 83.73 208.764 83.5307C208.577 83.4603 208.409 83.3487 208.271 83.2042C208.133 83.0597 208.029 82.8861 207.967 82.6961C207.78 82.1429 207.517 81.6271 207.283 81.0926C206.749 81.3177 206.749 81.3177 206.889 81.8428C207.161 82.7473 207.559 83.6091 208.07 84.4027C208.97 85.6244 209.725 86.946 210.32 88.3411C210.452 88.7162 210.546 89.1194 210.696 89.4851C210.93 90.0383 211.174 90.104 211.689 89.8039C211.737 89.7637 211.796 89.7377 211.858 89.7289H213.892C213.78 90.2821 213.724 90.8354 213.564 91.3511C213.446 91.7973 213.228 92.2108 212.927 92.5607C212.457 92.956 211.959 93.3164 211.436 93.6391C211.304 93.7272 211.192 93.8423 211.108 93.9767C210.536 95.0363 209.992 96.1146 209.411 97.1742C209.261 97.4462 209.214 97.6618 209.411 97.8869C210.199 98.7402 209.974 99.7623 209.983 100.803C209.983 100.906 209.805 101.056 209.674 101.131C209.029 101.423 208.451 101.844 207.977 102.369C207.792 102.599 207.663 102.868 207.602 103.157C207.498 104.021 207.217 104.854 206.777 105.604C206.139 106.711 205.567 107.855 204.986 108.98C204.936 109.104 204.853 109.212 204.745 109.291C204.638 109.371 204.51 109.419 204.377 109.43C203.795 109.43 203.224 109.486 202.642 109.533C202.389 109.533 202.145 109.608 201.892 109.627C201.779 109.638 201.666 109.608 201.574 109.543C201.358 109.383 201.18 109.186 201.02 109.046C201.023 108.468 200.878 107.9 200.599 107.395C200.477 107.217 200.355 107.039 200.214 106.87C199.838 106.337 199.633 105.703 199.624 105.051C199.595 104.678 199.483 104.316 199.295 103.991C198.864 103.335 198.591 102.587 198.499 101.806C198.506 101.37 198.592 100.938 198.752 100.531C198.799 100.346 198.875 100.169 198.977 100.006C199.142 99.6538 199.169 99.252 199.052 98.8809C198.777 97.5838 198.231 96.3598 197.449 95.2895C197.366 95.1469 197.323 94.9852 197.323 94.8206C197.323 94.656 197.366 94.4943 197.449 94.3518C197.571 94.1029 197.709 93.8618 197.861 93.6297C198.002 93.4141 197.992 93.2546 197.73 93.1609C197.607 93.1284 197.497 93.0602 197.414 92.965C197.331 92.8698 197.277 92.7519 197.261 92.6264C197.224 92.573 197.175 92.529 197.118 92.498C197.061 92.4671 196.998 92.45 196.933 92.4482C196.683 92.4742 196.431 92.4429 196.196 92.3568C195.96 92.2706 195.747 92.132 195.574 91.9512C195.306 91.7988 194.999 91.7303 194.692 91.7543C194.465 91.7654 194.241 91.8096 194.027 91.8856L190.942 92.6264C190.695 92.6799 190.438 92.6683 190.196 92.5927C189.955 92.5171 189.737 92.3801 189.564 92.195C189.473 92.0918 189.373 91.9976 189.264 91.9137C189.042 91.7792 188.857 91.5912 188.726 91.3668C188.595 91.1424 188.522 90.8888 188.514 90.6291C188.493 90.5183 188.447 90.414 188.378 90.3245C188.31 90.2349 188.222 90.1626 188.12 90.1133C187.183 89.8133 187.061 88.9693 186.808 88.2379C186.788 88.1258 186.792 88.0105 186.821 87.9003C186.85 87.7902 186.903 87.6877 186.977 87.6003C187.094 87.4942 187.175 87.3527 187.205 87.1971C187.235 87.0415 187.214 86.8803 187.145 86.7376C186.981 86.3527 186.914 85.9333 186.95 85.5163C186.986 85.0992 187.124 84.6975 187.352 84.3465C187.587 83.8285 187.952 83.3798 188.411 83.043C188.589 82.9211 188.636 82.6117 188.805 82.471C189.321 81.9923 189.686 81.373 189.855 80.6894C190 80.4106 190.205 80.1673 190.455 79.9768C190.83 79.6204 191.233 79.2922 191.608 78.9359C191.814 78.7484 191.955 78.7202 192.114 78.9922C192.145 79.0445 192.189 79.0882 192.241 79.1194C192.294 79.1505 192.353 79.168 192.414 79.1703C192.977 79.1047 193.548 79.0203 194.12 78.9359C194.29 78.8911 194.462 78.8597 194.636 78.8421C195.456 78.8548 196.267 78.6783 197.008 78.3264C197.177 78.2614 197.364 78.2614 197.533 78.3264C197.599 78.3264 197.599 78.589 197.589 78.7202C197.591 78.9148 197.639 79.1062 197.728 79.2789C197.818 79.4516 197.947 79.6007 198.105 79.7142C198.377 79.9861 198.667 80.2487 198.949 80.5113C198.995 80.5675 199.052 80.6425 199.117 80.6519C199.689 80.7457 200.261 80.8488 200.833 80.8957C201.124 80.8957 201.311 80.7926 201.414 80.4456C201.517 80.0987 201.78 79.9861 201.977 79.7611L202.033 79.883C202.154 80.0079 202.289 80.118 202.436 80.2112C202.733 80.3793 203.047 80.5145 203.374 80.6144C203.619 80.6471 203.868 80.6471 204.114 80.6144C204.254 80.6004 204.396 80.6004 204.536 80.6144C205.127 80.6988 205.736 80.7738 206.327 80.8957C206.423 80.9167 206.523 80.9122 206.616 80.8826C206.71 80.853 206.795 80.7993 206.861 80.7269C207.122 80.5924 207.327 80.37 207.441 80.099C207.554 79.828 207.568 79.5257 207.48 79.2454C207.427 78.9948 207.389 78.7411 207.367 78.4858C207.179 78.4134 206.978 78.3835 206.777 78.3981C206.576 78.4126 206.38 78.4714 206.205 78.5702C205.997 78.7049 205.751 78.766 205.504 78.7439C205.258 78.7218 205.026 78.6177 204.845 78.4483C204.25 78.0821 203.812 77.5071 203.617 76.8355C204.189 77.1261 204.433 76.7698 204.705 76.2541C203.983 76.4229 203.336 76.5542 202.699 76.7417C202.635 76.7549 202.576 76.7837 202.526 76.8255C202.476 76.8672 202.437 76.9207 202.413 76.981C202.389 77.0414 202.38 77.1068 202.387 77.1713C202.395 77.2359 202.418 77.2977 202.455 77.3512C202.499 77.428 202.522 77.5156 202.52 77.6044C202.488 77.7443 202.448 77.8821 202.399 78.017C202.211 77.9419 201.949 77.9044 201.874 77.7732C201.799 77.6419 201.686 77.2856 201.405 77.1918C201.381 77.1819 201.361 77.1665 201.344 77.1469C201.328 77.1274 201.317 77.1041 201.311 77.0793C201.367 76.4697 200.833 76.1416 200.58 75.729C200.524 75.6165 200.308 75.5602 200.158 75.5508C199.962 75.5497 199.769 75.5025 199.595 75.4129C199.42 75.3233 199.27 75.1938 199.155 75.0351C199.062 74.8989 198.948 74.7786 198.817 74.6787C198.62 74.5193 198.377 74.4162 198.18 74.6787C198.129 74.7219 198.087 74.7757 198.059 74.8364C198.031 74.8972 198.016 74.9634 198.016 75.0304C198.016 75.0974 198.031 75.1636 198.059 75.2243C198.087 75.2851 198.129 75.3389 198.18 75.382C198.526 75.7932 198.967 76.1149 199.464 76.3197C199.618 76.3897 199.756 76.4895 199.87 76.6135C199.984 76.7375 200.073 76.8831 200.13 77.0418C200.006 77.1413 199.861 77.2107 199.706 77.2444C199.551 77.2782 199.391 77.2754 199.237 77.2363C199.083 77.1972 198.941 77.1228 198.821 77.019C198.701 76.9153 198.606 76.785 198.545 76.6385C198.424 76.4625 198.29 76.2963 198.142 76.1416C197.897 75.8297 197.634 75.5323 197.355 75.2507C196.97 74.9132 196.22 74.885 196.136 75.5508C196.128 75.6221 196.109 75.6917 196.08 75.7571L195.827 75.6821C195.611 75.5982 195.373 75.5968 195.156 75.6781C194.94 75.7594 194.761 75.9178 194.655 76.1228C194.561 76.2728 194.42 76.3854 194.317 76.526C194.207 76.6303 194.118 76.7543 194.055 76.8917C193.994 77.1588 193.857 77.4026 193.66 77.5938C193.464 77.7851 193.217 77.9157 192.948 77.9701C192.231 78.0988 191.503 78.1616 190.773 78.1576C190.699 78.135 190.632 78.0939 190.578 78.0381C190.524 77.9823 190.485 77.9138 190.464 77.8388C190.407 77.3434 190.407 76.8432 190.464 76.3478C190.512 76.0979 190.65 75.8745 190.853 75.7204C191.055 75.5664 191.307 75.4926 191.561 75.5133C192.067 75.5133 192.573 75.5133 193.08 75.5133C193.277 75.5133 193.398 75.4477 193.38 75.2226C193.37 75.1353 193.37 75.0473 193.38 74.9601C193.483 74.3693 193.455 74.2943 192.911 73.9755C192.752 73.8817 192.573 73.8161 192.414 73.7223C192.255 73.6285 192.236 73.5816 192.245 73.516C192.255 73.4693 192.277 73.4259 192.308 73.3898C192.339 73.3537 192.379 73.3262 192.423 73.3097C192.617 73.2564 192.814 73.2218 193.014 73.2066C193.409 73.2181 193.798 73.1118 194.132 72.9014C194.465 72.691 194.729 72.3859 194.889 72.025C194.966 71.8175 195.1 71.636 195.276 71.5016C195.452 71.3672 195.662 71.2853 195.883 71.2655C196.605 71.153 196.727 70.9654 196.82 70.2246C196.868 70.0342 196.934 69.8489 197.017 69.6714H197.177C197.296 69.923 197.396 70.1831 197.477 70.4497C197.552 70.7591 197.711 70.9654 198.02 70.9936C198.294 71.0264 198.571 71.0264 198.845 70.9936C199.324 70.9373 199.783 70.8435 200.261 70.7873C200.439 70.7873 200.542 70.7873 200.599 70.5247C200.655 70.2622 200.87 70.1871 201.03 70.0277C201.189 69.8683 201.405 69.7933 201.414 69.4839C201.424 69.1744 201.911 68.8744 202.183 68.9119C202.333 68.9512 202.463 69.0447 202.549 69.1744C202.642 69.3464 202.714 69.529 202.764 69.7183C203.005 69.4927 203.183 69.2073 203.278 68.8912C203.373 68.5751 203.384 68.2393 203.308 67.9179C203.115 67.9764 202.917 68.0172 202.717 68.0398C202.447 68.082 202.172 68.082 201.902 68.0398C201.114 67.871 200.964 67.5147 201.414 66.8489C201.564 66.6239 201.724 66.1457 201.658 66.0894C201.358 65.8737 201.086 66.155 200.88 66.3426C200.37 66.7572 199.998 67.3161 199.811 67.946C199.668 68.5025 199.44 69.0338 199.136 69.5214C199.005 69.7277 198.62 69.8121 198.339 69.8496C198.227 69.8496 198.067 69.6245 197.955 69.4745C197.849 69.311 197.752 69.142 197.664 68.9681V69.09L195.995 69.1744C195.995 69.0807 195.939 69.015 195.92 68.94C195.686 67.7304 195.574 67.8991 196.727 67.4397C197.077 67.2403 197.393 66.9871 197.664 66.6895L198.452 65.9956C198.503 65.9601 198.55 65.9192 198.592 65.8737C199.38 64.8141 200.552 64.6453 201.733 64.4578C202.796 64.4179 203.855 64.6099 204.836 65.0204C205.361 65.1611 205.886 65.3298 206.514 65.508C205.755 66.1175 205.052 65.508 204.386 65.6205V65.7049C204.764 66.1125 205.168 66.4947 205.595 66.8489C205.886 67.0646 206.327 66.8489 206.43 66.4645C206.533 66.08 206.589 66.1175 206.833 66.1175C206.993 66.1142 207.15 66.0647 207.283 65.9749C207.416 65.885 207.52 65.7588 207.583 65.6112C207.705 65.358 207.874 65.2454 208.145 65.3486C208.145 65.6487 208.239 65.7706 208.53 65.6768C208.637 65.6421 208.738 65.5915 208.83 65.5268C209.174 65.3224 209.575 65.2336 209.974 65.2736C210.521 65.2421 211.061 65.1316 211.577 64.9454C211.744 64.8632 211.933 64.8361 212.117 64.8682C212.3 64.9002 212.469 64.9896 212.599 65.1235C214.921 67.5427 216.896 70.2724 218.467 73.2347C220.325 76.7509 221.577 80.555 222.171 84.4871L222.217 84.5059Z" fill="white"/>
<path d="M166.211 70.7027L165.948 72.2124C166.133 72.2242 166.318 72.186 166.483 72.1019C166.648 72.0177 166.787 71.8907 166.886 71.7341C167.495 70.8621 168.142 70.0088 168.761 69.1461C168.863 69.0177 168.957 68.883 169.042 68.7428C169.214 68.4113 169.492 68.147 169.832 67.9923C170.172 67.8376 170.554 67.8014 170.917 67.8896C171.348 67.9552 171.648 68.049 171.611 68.5647C171.611 68.6397 171.798 68.771 171.92 68.7897C172.49 68.8304 173.059 68.6963 173.551 68.4053C173.585 68.4837 173.61 68.5654 173.626 68.6491C173.64 68.7612 173.64 68.8746 173.626 68.9867C173.514 69.4096 173.56 69.859 173.755 70.2507C173.95 70.6425 174.281 70.9498 174.686 71.1153L174.855 71.1996C174.232 71.7957 173.418 72.1512 172.558 72.203C171.965 72.1987 171.382 72.3542 170.87 72.6531C170.435 72.8525 169.988 73.0217 169.53 73.1594C169.371 73.2592 169.226 73.3789 169.098 73.5158L169.155 73.6283L170.851 73.4783C170.786 73.8908 170.851 74.1346 171.292 74.1815C171.451 74.1815 171.601 74.4066 171.808 74.5754C171.067 74.7254 170.701 75.5131 169.783 75.3349L170.505 74.6598C170.158 74.2847 170.073 74.2472 169.623 74.5285C169.173 74.8098 168.77 75.1567 168.339 75.4662C168.226 75.5506 168.123 75.6819 168.001 75.71C167.251 75.8413 166.886 76.4601 166.408 76.9478C166.297 77.0979 166.157 77.2236 165.995 77.3172C165.834 77.4107 165.655 77.4701 165.47 77.4916C165.322 77.491 165.179 77.5443 165.067 77.6417C164.934 77.7569 164.847 77.917 164.823 78.0917C164.854 78.4066 164.785 78.7231 164.627 78.9971C164.469 79.2711 164.23 79.4889 163.942 79.6202C163.426 79.8958 162.931 80.2093 162.461 80.5579C162.263 80.7592 162.131 81.0153 162.081 81.2929C162.03 81.5705 162.065 81.8568 162.179 82.1145C162.265 82.298 162.309 82.4981 162.309 82.7006C162.309 82.9031 162.265 83.1031 162.179 83.2866C162.179 83.3804 161.926 83.4554 161.786 83.4648C161.645 83.4742 161.561 83.3241 161.533 83.221C161.411 82.7521 161.336 82.2833 161.214 81.7957C161.147 81.6351 161.066 81.4813 160.97 81.3362L160.876 81.3831V81.927L160.783 81.9926C160.665 81.8546 160.54 81.7231 160.408 81.5988C160.23 81.4276 160.032 81.2795 159.817 81.158C159.708 81.1046 159.583 81.0953 159.468 81.132C159.353 81.1687 159.256 81.2486 159.198 81.355C158.969 81.6515 158.725 81.9363 158.467 82.2083C158.272 81.9761 158.066 81.7539 157.848 81.5425C157.8 81.5039 157.744 81.4764 157.684 81.4618C157.624 81.4472 157.562 81.446 157.501 81.4581C157.053 81.5312 156.647 81.7644 156.358 82.1145C156.054 82.4841 155.715 82.8233 155.345 83.1272C155.176 83.2452 155.057 83.4216 155.01 83.6225C154.963 83.8234 154.992 84.0344 155.092 84.2149C155.134 84.3684 155.134 84.5304 155.092 84.6838C155.007 85.1237 155.092 85.5794 155.328 85.96C155.564 86.3405 155.935 86.6181 156.367 86.7374C156.595 86.8154 156.844 86.8103 157.068 86.7227C157.293 86.6352 157.48 86.471 157.595 86.2591C157.689 86.0529 157.764 85.8372 157.848 85.6309C157.867 85.5691 157.898 85.5119 157.94 85.4633C157.982 85.4147 158.035 85.3757 158.093 85.3491C158.152 85.3224 158.216 85.3086 158.28 85.3087C158.345 85.3088 158.408 85.3227 158.467 85.3496C158.598 85.4152 158.683 85.734 158.654 85.9216C158.572 86.2796 158.462 86.6307 158.326 86.9718C158.204 87.3563 158.326 87.525 158.701 87.6188C159.076 87.7126 159.301 87.7126 159.639 87.7501C159.721 87.7464 159.804 87.762 159.879 87.7955C159.955 87.8289 160.021 87.8795 160.074 87.9431C160.127 88.0067 160.164 88.0816 160.183 88.162C160.202 88.2424 160.202 88.3261 160.183 88.4065C160.136 88.8428 160.136 89.2829 160.183 89.7193C160.253 89.9822 160.392 90.2216 160.586 90.4132C160.658 90.4502 160.739 90.4695 160.82 90.4695C160.902 90.4695 160.982 90.4502 161.054 90.4132C161.189 90.3177 161.347 90.2596 161.512 90.2448C161.677 90.2299 161.842 90.2589 161.992 90.3288L162.358 90.4226C162.892 90.5538 163.042 90.4225 163.398 90.0662C163.642 89.8367 163.921 89.6469 164.223 89.5036C164.269 89.4916 164.317 89.4913 164.363 89.5028C164.409 89.5142 164.451 89.5371 164.486 89.5692C164.511 89.6084 164.524 89.654 164.524 89.7005C164.524 89.747 164.511 89.7926 164.486 89.8318C164.195 90.0944 164.354 90.2256 164.617 90.3382L165.255 90.6007C164.851 89.9443 165.386 89.7193 165.63 89.3254C165.728 89.3757 165.819 89.4388 165.901 89.513C166.079 89.7053 166.298 89.855 166.541 89.9508C166.785 90.0466 167.047 90.0861 167.308 90.0662C168.028 90.0565 168.722 90.3331 169.239 90.8351C169.946 91.4512 170.797 91.8771 171.714 92.0729C171.909 92.1086 172.095 92.1868 172.257 92.3018C172.418 92.4168 172.553 92.5659 172.651 92.7387C172.82 93.02 173.036 93.2732 173.214 93.5451C173.278 93.6184 173.322 93.7065 173.343 93.8014C173.363 93.8962 173.36 93.9947 173.333 94.0879C173.306 94.1812 173.256 94.2662 173.188 94.3351C173.12 94.4041 173.035 94.4549 172.942 94.4828L172.511 94.6797C172.633 94.9048 172.755 94.9704 172.97 94.8485C173.12 94.7563 173.285 94.6927 173.458 94.661C173.591 94.6794 173.715 94.7383 173.814 94.8298C173.814 94.8298 173.758 94.9892 173.73 95.0735C173.701 95.1579 173.664 95.2799 173.73 95.2986C173.809 95.3453 173.9 95.3681 173.992 95.3642C174.068 95.3474 174.136 95.3082 174.189 95.2517C174.263 95.1663 174.354 95.0979 174.457 95.0509C174.56 95.004 174.671 94.9797 174.784 94.9797C174.897 94.9797 175.009 95.004 175.112 95.0509C175.214 95.0979 175.306 95.1663 175.38 95.2517C175.426 95.2517 175.52 95.3173 175.52 95.3642C175.576 95.9831 175.998 95.73 176.27 95.6268C176.4 95.574 176.539 95.5508 176.679 95.559C176.818 95.5671 176.954 95.6063 177.076 95.6737C177.742 95.955 178.417 96.1894 179.101 96.4145C179.203 96.4423 179.294 96.5018 179.359 96.5844C179.425 96.667 179.463 96.7684 179.467 96.8739C179.537 97.402 179.489 97.9391 179.327 98.4465C179.165 98.9539 178.893 99.4192 178.53 99.809C178.479 99.8848 178.408 99.9436 178.323 99.9777C178.023 100.109 177.995 100.353 177.995 100.634C177.995 101.328 177.995 102.031 177.892 102.716C177.8 103.143 177.652 103.556 177.451 103.944C177.301 104.263 177.151 104.591 176.645 104.507C176.42 104.507 176.13 104.694 175.905 104.854C175.531 105.085 175.19 105.366 174.892 105.688C174.718 105.975 174.603 106.294 174.555 106.626C174.429 107.227 174.263 107.819 174.058 108.398C173.917 108.736 173.514 108.952 173.261 109.242C173.074 109.503 172.795 109.684 172.48 109.748C172.166 109.812 171.838 109.756 171.564 109.589C171.423 110.002 171.695 110.255 171.855 110.527C172.108 110.968 172.108 110.958 171.686 111.258C171.314 111.552 170.957 111.865 170.617 112.196C170.494 112.315 170.404 112.464 170.354 112.628C170.305 112.792 170.299 112.966 170.336 113.134C170.34 113.45 170.299 113.766 170.214 114.071C170.174 114.225 170.152 114.382 170.148 114.54C170.148 114.85 170.289 115.159 170.326 115.478C170.392 116.003 170.43 116.528 170.476 117.044C170.476 117.241 170.551 117.372 170.795 117.391C170.889 117.391 171.011 117.513 171.058 117.607C171.198 117.897 171.311 118.207 171.442 118.544C171.36 118.607 171.267 118.653 171.168 118.679C171.068 118.706 170.964 118.712 170.862 118.698C170.76 118.684 170.662 118.65 170.573 118.598C170.484 118.546 170.407 118.477 170.345 118.394C170.153 118.036 169.841 117.757 169.464 117.607C168.851 117.342 168.359 116.856 168.086 116.247C167.663 115.652 167.451 114.932 167.486 114.203C167.541 113.952 167.504 113.69 167.381 113.465C167.259 113.239 167.06 113.065 166.82 112.974C166.726 112.974 166.651 112.749 166.633 112.627C166.576 112.112 166.548 111.596 166.501 111.08C166.398 109.983 166.267 108.895 166.201 107.808C166.201 106.992 166.201 106.167 166.201 105.351C166.201 104.976 166.201 104.61 166.201 104.244C166.163 103.77 165.982 103.318 165.683 102.949C165.383 102.579 164.979 102.308 164.523 102.172C164.277 102.127 164.055 101.993 163.9 101.797C163.745 101.6 163.666 101.353 163.679 101.103C163.685 100.88 163.627 100.661 163.513 100.47C163.398 100.279 163.232 100.124 163.033 100.025C162.49 99.7208 162.079 99.2263 161.879 98.6368C161.804 98.4644 161.696 98.3083 161.561 98.1773C161.413 98.0384 161.304 97.8632 161.245 97.6691C161.185 97.475 161.178 97.2687 161.223 97.0709C161.237 96.8008 161.218 96.53 161.167 96.2644C161.128 96.0827 161.112 95.8969 161.12 95.7112C161.198 95.1882 161.39 94.6888 161.683 94.2484C162.005 93.7739 162.272 93.2643 162.479 92.7293C162.593 92.44 162.608 92.1212 162.522 91.8226C162.435 91.524 162.252 91.2625 162.001 91.0789C161.918 91.0396 161.827 91.0193 161.734 91.0193C161.642 91.0193 161.551 91.0396 161.467 91.0789C161.293 91.184 161.092 91.234 160.89 91.2223C160.687 91.2105 160.493 91.1377 160.333 91.0133C159.66 90.584 159.108 89.9901 158.729 89.2879C158.662 89.1888 158.568 89.1108 158.458 89.0629C158.29 89.0076 158.117 88.9699 157.942 88.9504C157.707 88.9377 157.478 88.878 157.267 88.7749C157.056 88.6718 156.868 88.5274 156.714 88.3502C156.527 88.1526 156.297 88.0008 156.041 87.9064C155.786 87.8121 155.513 87.7779 155.242 87.8064C155.168 87.8203 155.091 87.8203 155.017 87.8064C153.925 87.5203 152.933 86.9397 152.148 86.1279C152.028 85.9732 151.942 85.7939 151.899 85.6027C151.855 85.4116 151.854 85.2131 151.895 85.0214C152.183 82.8327 152.676 80.6758 153.367 78.5794C154.43 75.3474 155.962 72.2891 157.914 69.5024C158.636 68.4522 159.47 67.4863 160.248 66.4736C160.37 66.3236 160.492 66.2579 160.661 66.3798C160.78 66.45 160.912 66.4953 161.049 66.513C161.186 66.5308 161.325 66.5206 161.458 66.483C162.095 66.408 162.751 66.4361 163.333 66.3048C164.094 66.145 164.838 65.9126 165.555 65.6109C165.82 65.4607 166.048 65.2516 166.22 64.9996C166.392 64.7477 166.505 64.4596 166.548 64.1575C166.595 63.9887 166.651 63.8199 166.698 63.6511C166.886 63.0322 166.886 63.0322 167.533 63.1823L168.836 63.473C168.47 63.6042 168.086 63.7261 167.72 63.8762C167.505 63.9606 167.467 64.1012 167.626 64.2888C167.786 64.4763 168.123 64.9264 168.395 65.2265C168.436 65.2709 168.488 65.3045 168.545 65.3241C168.602 65.3438 168.664 65.3489 168.723 65.339C169.248 65.1242 169.819 65.0467 170.383 65.1139C170.243 65.3652 170.073 65.5982 169.876 65.8078C169.674 65.9641 169.435 66.0672 169.183 66.1079C168.536 66.2392 167.87 66.3236 167.214 66.4267C167.178 66.6486 167.064 66.8502 166.891 66.9948C166.719 67.1393 166.501 67.2173 166.276 67.2144C165.429 67.3477 164.635 67.711 163.979 68.2646C163.741 68.3894 163.558 68.5997 163.467 68.8536C163.377 69.1074 163.386 69.386 163.492 69.6337C163.558 69.84 163.623 70.1025 163.961 69.9431C164.017 69.9431 164.12 69.9431 164.195 70.0088C164.504 70.1682 164.814 70.3463 165.133 70.5057C165.451 70.6651 165.658 70.8339 166.005 70.7214C166.035 70.7033 166.07 70.6923 166.106 70.689C166.141 70.6858 166.177 70.6904 166.211 70.7027Z" fill="white"/>
<path d="M176.233 61.9071C177.039 61.7758 177.808 61.6727 178.558 61.5227C178.879 61.4358 179.192 61.323 179.495 61.1851C180.302 60.7942 181.198 60.6259 182.092 60.6975C182.926 60.8194 183.77 60.8757 184.614 60.9413C184.77 60.9712 184.931 60.9611 185.082 60.9119C185.232 60.8627 185.368 60.776 185.476 60.66C185.561 60.5475 185.795 60.5287 185.964 60.5006C186.62 60.3974 187.277 60.2755 187.942 60.2099C188.291 60.1631 188.644 60.1631 188.992 60.2099C189.798 60.3412 190.605 60.4912 191.411 60.6412C191.54 60.6565 191.662 60.7123 191.758 60.8006C191.42 60.8006 191.083 60.8006 190.755 60.8757C190.542 60.8922 190.333 60.9429 190.136 61.0257C189.836 61.1757 189.555 61.3445 189.545 61.7852C189.541 62.0036 189.464 62.2143 189.326 62.3841C189.189 62.5538 188.999 62.673 188.786 62.7229C188.348 62.8904 187.919 63.0814 187.502 63.2949C187.277 63.3981 187.277 63.52 187.502 63.6419L188.439 64.1576C187.923 64.3639 187.923 64.3639 186.855 63.8763L187.314 64.6265C186.62 64.8046 185.917 65.0109 185.205 65.1703C184.545 65.2933 183.929 65.584 183.414 66.0143C182.895 66.3775 182.284 66.5856 181.651 66.6144C181.323 66.6707 181.051 66.7363 181.061 67.1864C181.019 67.3706 180.916 67.5355 180.77 67.6553C180.596 67.8166 180.404 67.9581 180.198 68.0772C180.029 68.2019 179.827 68.2765 179.617 68.2924C179.407 68.3083 179.197 68.265 179.01 68.1673C178.824 68.0696 178.668 67.9214 178.562 67.7397C178.455 67.558 178.402 67.3501 178.408 67.1395C178.375 66.9156 178.375 66.6882 178.408 66.4644C178.471 66.1907 178.575 65.9282 178.717 65.6861C178.783 65.5772 178.869 65.4818 178.97 65.4048C179.187 65.2265 179.353 64.9937 179.451 64.7302C179.548 64.4668 179.574 64.1821 179.525 63.9054C179.477 63.6287 179.355 63.3699 179.174 63.1555C178.992 62.9411 178.757 62.7789 178.492 62.6854C177.986 62.3793 177.42 62.1873 176.833 62.1228C176.62 62.0908 176.417 62.0176 176.233 61.9071Z" fill="white"/>
<path d="M170.064 62.8451C170.336 62.3762 170.636 62.2356 171.105 62.4512C171.332 62.5712 171.582 62.6431 171.838 62.6625C172.095 62.6819 172.352 62.6482 172.595 62.5638L172.67 62.6482C172.605 62.7513 172.548 62.9013 172.455 62.9482C172.361 62.9951 171.967 63.0514 171.742 63.1358C171.688 63.157 171.639 63.1898 171.598 63.2319C171.558 63.274 171.527 63.3244 171.508 63.3796C171.508 63.4452 171.62 63.5859 171.705 63.614L174.517 64.411C174.562 64.4341 174.6 64.4673 174.63 64.508C174.659 64.5488 174.678 64.5959 174.686 64.6455C174.681 64.7699 174.659 64.893 174.62 65.0112C174.47 65.6863 174.62 65.9489 175.351 65.9489C175.356 66.0651 175.319 66.179 175.246 66.2701C175.174 66.3613 175.072 66.4236 174.958 66.4458C174.508 66.5677 174.02 66.699 173.617 66.8491C173.42 66.9147 173.205 66.9803 173.261 67.2804C173.261 67.3367 173.214 67.421 173.167 67.4679C172.978 67.6024 172.752 67.6747 172.52 67.6747C172.288 67.6747 172.062 67.6024 171.873 67.4679C171.794 67.3808 171.74 67.2741 171.717 67.1589C171.693 67.0437 171.701 66.9243 171.739 66.8131C171.777 66.702 171.845 66.6031 171.934 66.527C172.024 66.4508 172.132 66.4001 172.248 66.3802C172.511 66.3146 172.792 66.2958 173.064 66.2208C173.187 66.1943 173.295 66.1202 173.364 66.0145C173.364 65.9489 173.28 65.7895 173.195 65.7144C172.507 65.0865 171.614 64.73 170.683 64.7111C170.167 64.7111 169.651 64.6267 169.136 64.5704C168.92 64.5704 168.639 64.5704 168.62 64.2422C168.609 64.1723 168.613 64.1006 168.633 64.0326C168.653 63.9646 168.689 63.9021 168.737 63.8497C168.784 63.7973 168.844 63.7565 168.909 63.7303C168.975 63.7041 169.046 63.6932 169.117 63.6984C169.456 63.6826 169.794 63.6482 170.13 63.5952C170.27 63.5952 170.495 63.464 170.514 63.3608C170.561 63.117 170.411 62.9576 170.139 62.9576C170.13 62.8451 170.111 62.8451 170.064 62.8451Z" fill="white"/>
<path d="M213.527 99.6968C213.849 100.461 213.889 101.315 213.639 102.107C213.358 102.801 213.189 103.551 212.955 104.263C212.874 104.475 212.773 104.679 212.655 104.873C212.299 105.529 212.299 105.529 211.577 105.398C211.439 105.353 211.312 105.28 211.202 105.185C211.092 105.09 211.003 104.974 210.938 104.844C210.874 104.714 210.836 104.573 210.826 104.428C210.817 104.283 210.836 104.138 210.883 104.001C211.067 103.762 211.224 103.505 211.352 103.232C211.421 102.923 211.421 102.603 211.352 102.294C211.337 102.081 211.391 101.868 211.506 101.688C211.62 101.507 211.79 101.368 211.989 101.291C212.093 101.269 212.19 101.221 212.27 101.15C212.636 100.785 212.992 100.419 213.33 100.044C213.409 99.936 213.475 99.8196 213.527 99.6968Z" fill="white"/>
<path d="M179.092 60.2664C178.452 60.7601 177.697 61.0828 176.898 61.2041C175.793 61.3873 174.738 61.8027 173.805 62.4232C173.495 62.6107 173.195 62.7701 172.97 62.3012C172.923 62.2169 172.755 62.17 172.642 62.1512C172.348 62.1211 172.056 62.0678 171.77 61.9918C171.853 61.9145 171.948 61.8512 172.051 61.8043C172.295 61.7292 172.548 61.6824 172.792 61.6167C173.036 61.5511 173.373 61.4948 173.476 61.1291C173.51 61.0534 173.561 60.9863 173.624 60.9328C173.687 60.8792 173.762 60.8405 173.842 60.8197C174.33 60.7071 174.836 60.6415 175.342 60.5571C175.659 60.5491 175.973 60.505 176.28 60.4258C176.835 60.2136 177.43 60.1241 178.023 60.1633C178.208 60.1729 178.392 60.1729 178.576 60.1633H179.111L179.092 60.2664Z" fill="white"/>
<path d="M193.023 70.8809C192.808 70.5527 192.498 70.4026 192.283 70.5433C191.655 70.9746 191.608 71.0872 191.898 71.5466L190.661 72.0155C190.567 71.5841 191.073 71.1903 190.661 70.7965C190.746 70.6523 190.869 70.5337 191.015 70.4529C191.162 70.372 191.328 70.332 191.495 70.337H191.983C192.245 70.337 192.452 70.2338 192.414 69.9056C192.403 69.8053 192.423 69.7041 192.47 69.615C192.573 69.4649 192.686 69.2586 192.836 69.2305C192.986 69.2024 193.145 69.3524 193.352 69.4556C192.977 69.84 193.136 70.0557 193.464 70.2245C193.543 70.2623 193.611 70.3206 193.661 70.3933C193.747 70.6575 193.867 70.9096 194.017 71.1434C194.243 71.325 194.496 71.4705 194.767 71.5748C194.545 71.7717 194.31 71.9534 194.064 72.1186C193.828 72.2641 193.572 72.3747 193.305 72.4468C193.087 72.4752 192.866 72.4752 192.648 72.4468V72.3249L193.108 72.0342C192.948 71.8373 192.705 71.6685 192.686 71.481C192.667 71.2935 192.892 71.1059 193.023 70.8809Z" fill="white"/>
<path d="M187.389 66.5958C187.544 66.5206 187.704 66.4548 187.867 66.3989C188.364 66.2582 188.87 66.127 189.377 66.0051C189.63 65.9488 189.902 65.9488 189.986 66.2114C190.07 66.4739 189.883 66.5958 189.752 66.6802C189.457 66.873 189.143 67.0333 188.814 67.1585C188.667 67.2343 188.499 67.2562 188.338 67.2202C188.177 67.1842 188.033 67.0926 187.933 66.9615C187.83 66.8303 187.614 66.8021 187.445 66.7177L187.389 66.5958Z" fill="white"/>
<path d="M172.961 73.6002C173.359 73.0299 173.921 72.5947 174.573 72.353L174.245 72.6437C174.395 72.7094 174.536 72.7375 174.601 72.8219C174.667 72.9063 174.976 73.2063 174.939 73.3282C174.908 73.4572 174.828 73.5692 174.716 73.6408C174.604 73.7124 174.469 73.7382 174.339 73.7127C173.898 73.6377 173.448 73.6377 172.961 73.6002Z" fill="white"/>
<path d="M205.689 119.782L205.633 120.195C201.089 122.926 195.999 124.621 190.724 125.158C185.45 125.695 180.123 125.061 175.122 123.301C170.121 121.541 165.57 118.698 161.795 114.976C158.019 111.254 155.111 106.745 153.278 101.769C151.446 96.7933 150.734 91.4745 151.194 86.192C151.654 80.9095 153.274 75.7937 155.938 71.2096C158.603 66.6255 162.246 62.6863 166.608 59.6729C170.97 56.6596 175.944 54.6465 181.173 53.7773C178.625 55.8791 176.289 58.2251 174.198 60.782C173.795 61.279 173.373 61.8041 172.98 62.3386C172.586 62.8731 172.333 63.2013 172.042 63.6607C171.751 64.1202 171.573 64.3453 171.348 64.6922C170.499 65.9936 169.732 67.3465 169.051 68.7431C167.758 71.3672 166.843 74.1611 166.333 77.0418C165.578 81.4379 165.946 85.9534 167.401 90.1696C168.126 92.3078 169.069 94.366 170.214 96.3116C171.954 99.2986 173.959 102.123 176.205 104.751C189.817 120.579 205.689 119.782 205.689 119.782Z" fill="url(#paint0_linear_506_3696)"/>
<path d="M354.847 113.134C353.853 116.959 349.353 116.294 349.353 116.294C349.353 116.294 323.103 116.781 322.587 116.294C322.071 115.806 322.446 114.343 322.54 113.79L322.587 113.593H330.087C330.087 113.593 333.631 111.718 327.828 103.4C322.943 96.3769 341.356 96.0581 347.375 96.1425C348.518 96.1425 349.25 96.1425 349.25 96.1425C349.25 96.1425 355.831 109.308 354.847 113.134Z" fill="#45C6B6"/>
<path d="M351.725 110.452C350.787 114.269 346.203 113.556 346.203 113.556C346.203 113.556 329.562 113.884 322.512 113.753L322.559 113.556H330.059C330.059 113.556 333.603 111.681 327.8 103.363C322.915 96.3398 341.328 96.021 347.347 96.1053C349.222 100.147 352.447 107.705 351.725 110.452Z" fill="#45C6B6"/>
<path d="M352.803 111.015C351.818 114.831 346.24 113.556 346.24 113.556C346.24 113.556 329.599 113.884 322.549 113.753L322.596 113.556H330.096C330.096 113.556 333.64 111.681 327.837 103.363C322.953 96.3398 341.365 96.021 347.384 96.1053C349.222 100.147 353.515 108.267 352.803 111.015Z" fill="url(#paint1_linear_506_3696)"/>
<path d="M364.053 58.3252H307.915C305 58.3252 302.637 60.6888 302.637 63.6045V97.8119C302.637 100.728 305 103.091 307.915 103.091H364.053C366.968 103.091 369.331 100.728 369.331 97.8119V63.6045C369.331 60.6888 366.968 58.3252 364.053 58.3252Z" fill="#45C6B6"/>
<path d="M364.053 58.3252H307.915C305 58.3252 302.637 60.6888 302.637 63.6045V97.8119C302.637 100.728 305 103.091 307.915 103.091H364.053C366.968 103.091 369.331 100.728 369.331 97.8119V63.6045C369.331 60.6888 366.968 58.3252 364.053 58.3252Z" fill="url(#paint2_linear_506_3696)"/>
<path d="M362.637 58.3252H306.499C303.584 58.3252 301.221 60.6888 301.221 63.6045V97.8119C301.221 100.728 303.584 103.091 306.499 103.091H362.637C365.552 103.091 367.915 100.728 367.915 97.8119V63.6045C367.915 60.6888 365.552 58.3252 362.637 58.3252Z" fill="#45C6B6"/>
<path d="M362.637 58.3252H306.499C303.584 58.3252 301.221 60.6888 301.221 63.6045V97.8119C301.221 100.728 303.584 103.091 306.499 103.091H362.637C365.552 103.091 367.915 100.728 367.915 97.8119V63.6045C367.915 60.6888 365.552 58.3252 362.637 58.3252Z" fill="url(#paint3_linear_506_3696)"/>
<path d="M367.869 93.3579L367.915 97.8026C367.915 98.4967 367.779 99.184 367.513 99.8251C367.247 100.466 366.857 101.049 366.366 101.539C365.875 102.029 365.292 102.418 364.651 102.683C364.009 102.947 363.322 103.083 362.628 103.082H306.499C305.1 103.082 303.757 102.526 302.767 101.536C301.777 100.546 301.221 99.2028 301.221 97.8026V93.3579H367.869Z" fill="#45C6B6"/>
<path d="M348.734 113.771H322.559V116.256H348.734V113.771Z" fill="url(#paint4_linear_506_3696)"/>
<path d="M352.803 111.015L353.047 115.469C352.419 115.887 351.713 116.172 350.971 116.307C350.23 116.443 349.469 116.425 348.734 116.256V113.762C348.734 113.762 352.447 114.831 352.803 111.015Z" fill="url(#paint5_linear_506_3696)"/>
<path d="M40.6972 85.0307C41.4565 87.9282 44.8878 87.4031 44.8878 87.4031C44.8878 87.4031 64.8005 87.7688 65.1755 87.4031C65.5505 87.0374 65.2786 85.9215 65.1755 85.5277C65.1813 85.481 65.1813 85.4337 65.1755 85.387H59.4848C59.4848 85.387 56.8035 83.9899 61.2005 77.6604C64.9505 72.3342 50.9441 72.0904 46.3878 72.156C45.516 72.156 44.9909 72.156 44.9909 72.156C44.9909 72.156 39.9753 82.1332 40.6972 85.0307Z" fill="#45C6B6"/>
<path d="M43.0691 82.9962C43.8097 85.8937 47.2503 85.3592 47.2503 85.3592C47.2503 85.3592 59.8692 85.603 65.2036 85.4999C65.2094 85.4532 65.2094 85.4059 65.2036 85.3592H59.4848C59.4848 85.3592 56.8035 83.962 61.2005 77.6325C64.9505 72.3064 50.9441 72.0626 46.3878 72.1282C44.9628 75.1851 42.5253 80.9145 43.0691 82.9962Z" fill="#45C6B6"/>
<path d="M42.2534 83.4744C42.994 86.3719 47.2503 85.4061 47.2503 85.4061C47.2503 85.4061 59.8692 85.6499 65.2036 85.5467C65.2094 85.5 65.2094 85.4528 65.2036 85.4061H59.4848C59.4848 85.4061 56.8035 84.0089 61.2004 77.6794C64.9505 72.3533 50.9441 72.1094 46.3878 72.1751C44.9628 75.1851 41.7096 81.3458 42.2534 83.4744Z" fill="url(#paint6_linear_506_3696)"/>
<path d="M76.2756 43.4907H33.7316C31.5207 43.4907 29.7284 45.2834 29.7284 47.4947V73.4128C29.7284 75.6242 31.5207 77.4168 33.7316 77.4168H76.2756C78.4865 77.4168 80.2788 75.6242 80.2788 73.4128V47.4947C80.2788 45.2834 78.4865 43.4907 76.2756 43.4907Z" fill="#45C6B6"/>
<path d="M76.2756 43.4907H33.7316C31.5207 43.4907 29.7284 45.2834 29.7284 47.4947V73.4128C29.7284 75.6242 31.5207 77.4168 33.7316 77.4168H76.2756C78.4865 77.4168 80.2788 75.6242 80.2788 73.4128V47.4947C80.2788 45.2834 78.4865 43.4907 76.2756 43.4907Z" fill="url(#paint7_linear_506_3696)"/>
<path d="M77.3444 43.4907H34.8003C32.5894 43.4907 30.7971 45.2834 30.7971 47.4947V73.4128C30.7971 75.6242 32.5894 77.4168 34.8003 77.4168H77.3444C79.5553 77.4168 81.3475 75.6242 81.3475 73.4128V47.4947C81.3475 45.2834 79.5553 43.4907 77.3444 43.4907Z" fill="#45C6B6"/>
<path d="M77.3444 43.4907H34.8003C32.5894 43.4907 30.7971 45.2834 30.7971 47.4947V73.4128C30.7971 75.6242 32.5894 77.4168 34.8003 77.4168H77.3444C79.5553 77.4168 81.3475 75.6242 81.3475 73.4128V47.4947C81.3475 45.2834 79.5553 43.4907 77.3444 43.4907Z" fill="url(#paint8_linear_506_3696)"/>
<path d="M30.8252 70.0371V73.4128C30.8252 74.4748 31.247 75.4932 31.9977 76.2441C32.7484 76.995 33.7666 77.4168 34.8283 77.4168H77.3443C78.406 77.4168 79.4242 76.995 80.175 76.2441C80.9257 75.4932 81.3475 74.4748 81.3475 73.4128V70.0371H30.8252Z" fill="#45C6B6"/>
<path d="M45.3379 87.4033H65.1755V85.5185H45.3379V87.4033Z" fill="url(#paint9_linear_506_3696)"/>
<path d="M42.2534 83.4741L42.0659 86.8499C42.5419 87.167 43.0775 87.3837 43.6401 87.4869C44.2026 87.5901 44.7803 87.5775 45.3378 87.45V85.5746C45.3378 85.5746 42.5159 86.2872 42.2534 83.4741Z" fill="url(#paint10_linear_506_3696)"/>
<path d="M252.199 63.67L226.258 59.7973C225.839 59.735 225.453 59.5323 225.163 59.2224C224.874 58.9124 224.698 58.5135 224.664 58.0907L222.789 37.0017C222.761 36.7169 222.799 36.4295 222.9 36.1615C223 35.8935 223.161 35.652 223.369 35.4556C223.577 35.2592 223.827 35.1131 224.1 35.0284C224.374 34.9437 224.663 34.9226 224.946 34.9669L250.914 38.849C251.339 38.9078 251.73 39.1101 252.024 39.4223C252.317 39.7345 252.495 40.1378 252.527 40.565L254.355 61.6258C254.384 61.9114 254.348 62.1999 254.248 62.4691C254.148 62.7383 253.988 62.981 253.78 63.1785C253.571 63.376 253.321 63.523 253.046 63.6082C252.772 63.6934 252.482 63.7146 252.199 63.67Z" fill="#45C6B6"/>
<path d="M250.961 61.2695L227.524 57.7719C227.15 57.7201 226.805 57.5455 226.542 57.2755C226.279 57.0055 226.113 56.6556 226.071 56.2809L224.308 37.977C224.29 37.7255 224.33 37.4732 224.424 37.2393C224.518 37.0053 224.664 36.7959 224.851 36.6269C225.038 36.4578 225.261 36.3337 225.503 36.2638C225.745 36.1939 226 36.1801 226.249 36.2235L249.686 39.7211C250.06 39.7713 250.407 39.9455 250.67 40.2158C250.934 40.486 251.099 40.8368 251.14 41.2121L252.902 59.5254C252.92 59.7766 252.881 60.0287 252.787 60.2623C252.693 60.496 252.547 60.705 252.359 60.8733C252.172 61.0417 251.949 61.1649 251.706 61.2336C251.464 61.3023 251.209 61.3146 250.961 61.2695Z" fill="url(#paint11_linear_506_3696)"/>
<path d="M226.735 59.0583L260.578 64.1172C260.88 64.1624 261.152 64.326 261.334 64.5719C261.516 64.8178 261.593 65.1259 261.548 65.4284C261.503 65.7309 261.339 66.0031 261.093 66.1851C260.847 66.367 260.539 66.4439 260.237 66.3986L226.394 61.3397C226.094 61.2948 225.824 61.1326 225.643 60.8887C225.463 60.6448 225.387 60.3392 225.432 60.0392C225.452 59.8887 225.501 59.7436 225.578 59.6126C225.654 59.4815 225.756 59.3669 225.878 59.2756C225.999 59.1843 226.137 59.1181 226.284 59.0808C226.431 59.0435 226.584 59.0358 226.735 59.0583Z" fill="#45C6B6"/>
<path d="M268.766 65.3312L241.552 61.2632C240.984 61.1783 240.454 61.5703 240.369 62.1388L240.335 62.3706C240.25 62.9392 240.642 63.4689 241.21 63.5539L268.424 67.6219C268.992 67.7068 269.522 67.3148 269.607 66.7463L269.641 66.5144C269.726 65.9459 269.334 65.4161 268.766 65.3312Z" fill="#45C6B6"/>
<path d="M268.766 65.3312L241.552 61.2632C240.984 61.1783 240.454 61.5703 240.369 62.1388L240.335 62.3706C240.25 62.9392 240.642 63.4689 241.21 63.5539L268.424 67.6219C268.992 67.7068 269.522 67.3148 269.607 66.7463L269.641 66.5144C269.726 65.9459 269.334 65.4161 268.766 65.3312Z" fill="url(#paint12_linear_506_3696)"/>
<path d="M117.788 98.6649L95.1195 107.245C94.7546 107.386 94.3527 107.399 93.9796 107.281C93.6066 107.163 93.2845 106.923 93.0663 106.598L82.0506 90.4225C81.9016 90.2044 81.8041 89.9553 81.7654 89.6939C81.7267 89.4326 81.7479 89.1658 81.8273 88.9139C81.9068 88.6619 82.0424 88.4313 82.224 88.2394C82.4056 88.0476 82.6284 87.8995 82.8756 87.8063L105.545 79.217C105.914 79.0807 106.318 79.0713 106.693 79.1901C107.068 79.309 107.393 79.5494 107.616 79.8734L118.595 96.03C118.744 96.2484 118.842 96.4978 118.882 96.7594C118.922 97.0211 118.903 97.2884 118.826 97.5415C118.748 97.7947 118.615 98.0271 118.435 98.2216C118.256 98.416 118.035 98.5676 117.788 98.6649Z" fill="#45C6B6"/>
<path d="M115.688 97.2865L95.232 105.041C94.9049 105.182 94.5391 105.204 94.1971 105.105C93.8552 105.006 93.5582 104.791 93.357 104.497L83.71 90.5257C83.5794 90.3322 83.4951 90.1112 83.4637 89.8798C83.4324 89.6485 83.4547 89.413 83.5291 89.1917C83.6034 88.9703 83.7278 88.7691 83.8925 88.6037C84.0572 88.4383 84.2579 88.313 84.4788 88.2377L104.935 80.4829C105.263 80.3477 105.627 80.3279 105.968 80.4267C106.308 80.5255 106.605 80.7371 106.81 81.0268L116.495 94.9985C116.623 95.195 116.704 95.4183 116.732 95.6512C116.76 95.8841 116.734 96.1203 116.656 96.3415C116.578 96.5627 116.45 96.763 116.282 96.9269C116.115 97.0907 115.911 97.2138 115.688 97.2865Z" fill="url(#paint13_linear_506_3696)"/>
<path d="M95.1618 106.438L124.724 95.2352C124.989 95.1348 125.283 95.1438 125.542 95.2602C125.8 95.3767 126.002 95.591 126.102 95.8561C126.203 96.1213 126.194 96.4154 126.077 96.6739C125.961 96.9324 125.746 97.1341 125.481 97.2345L95.9191 108.437C95.7881 108.491 95.6478 108.517 95.5062 108.516C95.3647 108.514 95.225 108.485 95.0952 108.428C94.9654 108.372 94.8482 108.29 94.7506 108.187C94.653 108.085 94.5769 107.964 94.5268 107.831C94.4737 107.699 94.4481 107.556 94.4514 107.413C94.4548 107.27 94.4872 107.129 94.5465 106.999C94.6059 106.869 94.691 106.752 94.7967 106.655C94.9025 106.559 95.0267 106.485 95.1618 106.438Z" fill="#45C6B6"/>
<path d="M131.878 92.52L108.11 101.526C107.612 101.715 107.36 102.273 107.549 102.772L107.622 102.965C107.811 103.464 108.369 103.715 108.868 103.526L132.635 94.5193C133.134 94.3303 133.385 93.7727 133.196 93.2739L133.123 93.081C132.934 92.5822 132.376 92.331 131.878 92.52Z" fill="#45C6B6"/>
<path d="M131.878 92.52L108.11 101.526C107.612 101.715 107.36 102.273 107.549 102.772L107.622 102.965C107.811 103.464 108.369 103.715 108.868 103.526L132.635 94.5193C133.134 94.3303 133.385 93.7727 133.196 93.2739L133.123 93.081C132.934 92.5822 132.376 92.331 131.878 92.52Z" fill="url(#paint14_linear_506_3696)"/>
<path d="M139.444 108.858L117.042 110.965C113.676 111.281 111.204 114.267 111.52 117.634L116.85 174.34C117.166 177.707 120.151 180.18 123.518 179.863L145.919 177.757C149.285 177.441 151.758 174.455 151.441 171.088L146.112 114.382C145.795 111.015 142.81 108.542 139.444 108.858Z" fill="#45C6B6"/>
<path d="M139.444 108.858L117.042 110.965C113.676 111.281 111.204 114.267 111.52 117.634L116.85 174.34C117.166 177.707 120.151 180.18 123.518 179.863L145.919 177.757C149.285 177.441 151.758 174.455 151.441 171.088L146.112 114.382C145.795 111.015 142.81 108.542 139.444 108.858Z" fill="url(#paint15_linear_506_3696)"/>
<path d="M139.503 108.785L116.971 110.903C113.641 111.216 111.195 114.17 111.508 117.501L116.712 172.872C117.025 176.203 119.979 178.649 123.309 178.336L145.841 176.218C149.171 175.905 151.617 172.951 151.304 169.62L146.1 114.249C145.787 110.918 142.834 108.472 139.503 108.785Z" fill="#45C6B6"/>
<path d="M138.614 110.43L118.331 112.337C115.341 112.618 113.145 115.27 113.426 118.261L118.098 167.965C118.379 170.955 121.03 173.152 124.02 172.871L144.303 170.964C147.293 170.682 149.489 168.03 149.208 165.04L144.536 115.336C144.255 112.345 141.604 110.149 138.614 110.43Z" fill="white"/>
<path d="M172.904 44.8877C172.311 44.8986 171.73 44.7249 171.24 44.3905C170.75 44.0562 170.376 43.5777 170.17 43.0215C169.964 42.4652 169.936 41.8586 170.09 41.2858C170.244 40.7129 170.572 40.2021 171.029 39.8241C175.417 36.1764 186.33 31.3003 196.277 38.8864C196.594 39.1078 196.864 39.3912 197.069 39.7196C197.274 40.0481 197.411 40.4146 197.471 40.7973C197.531 41.18 197.512 41.5708 197.417 41.9462C197.322 42.3216 197.152 42.6738 196.917 42.9817C196.682 43.2896 196.387 43.5467 196.05 43.7375C195.713 43.9283 195.341 44.049 194.956 44.0921C194.571 44.1353 194.182 44.1001 193.811 43.9886C193.44 43.8772 193.096 43.6918 192.798 43.4436C184.023 36.739 175.07 43.9218 174.686 44.2313C174.183 44.6453 173.555 44.8766 172.904 44.8877Z" fill="#45C6B6"/>
<path d="M166.108 35.6517C165.731 35.6551 165.358 35.583 165.011 35.4397C164.663 35.2963 164.347 35.0846 164.083 34.8171C163.55 34.2797 163.25 33.5534 163.25 32.7964C163.25 32.0394 163.55 31.3131 164.083 30.7756C164.251 30.6162 180.78 14.3377 201.93 29.4722C202.551 29.9137 202.972 30.584 203.1 31.3358C203.227 32.0875 203.051 32.8592 202.609 33.4809C202.391 33.7888 202.114 34.0505 201.794 34.2513C201.475 34.4521 201.118 34.5879 200.746 34.6511C199.995 34.7785 199.223 34.6022 198.602 34.1607C181.483 21.9237 168.686 34.3108 168.151 34.8453C167.882 35.11 167.563 35.3178 167.211 35.4563C166.86 35.5949 166.485 35.6613 166.108 35.6517Z" fill="#45C6B6"/>
<path d="M208.914 24.9055C208.309 24.9039 207.719 24.7138 207.227 24.3617C181.764 5.76702 160.098 23.4709 159.189 24.2398C158.604 24.7052 157.861 24.924 157.118 24.8499C156.374 24.7757 155.689 24.4143 155.208 23.8426C154.727 23.2709 154.487 22.534 154.541 21.7886C154.595 21.0432 154.937 20.3482 155.495 19.8513C155.748 19.6357 181.436 -1.56582 210.611 19.7294C211.096 20.0881 211.455 20.5904 211.638 21.1649C211.821 21.7395 211.819 22.3572 211.631 22.9302C211.443 23.5032 211.079 24.0025 210.592 24.3571C210.104 24.7117 209.517 24.9036 208.914 24.9055Z" fill="#45C6B6"/>
</g>
<defs>
<linearGradient id="paint0_linear_506_3696" x1="191.852" y1="83.4932" x2="132.851" y2="144.61" gradientUnits="userSpaceOnUse">
<stop stop-opacity="0"/>
<stop offset="0.99"/>
</linearGradient>
<linearGradient id="paint1_linear_506_3696" x1="11356.5" y1="3354.26" x2="11266.1" y2="2901.22" gradientUnits="userSpaceOnUse">
<stop stop-opacity="0"/>
<stop offset="0.99"/>
</linearGradient>
<linearGradient id="paint2_linear_506_3696" x1="28779.1" y1="3798.07" x2="21125.2" y2="4217.69" gradientUnits="userSpaceOnUse">
<stop stop-opacity="0"/>
<stop offset="0.99"/>
</linearGradient>
<linearGradient id="paint3_linear_506_3696" x1="330.968" y1="50.6829" x2="341.735" y2="140.486" gradientUnits="userSpaceOnUse">
<stop offset="0.02" stop-color="white" stop-opacity="0"/>
<stop offset="0.32" stop-color="white" stop-opacity="0.39"/>
<stop offset="0.68" stop-color="white" stop-opacity="0.68"/>
<stop offset="1" stop-color="white"/>
</linearGradient>
<linearGradient id="paint4_linear_506_3696" x1="9663.19" y1="417.48" x2="9714.59" y2="620.021" gradientUnits="userSpaceOnUse">
<stop stop-opacity="0"/>
<stop offset="0.99"/>
</linearGradient>
<linearGradient id="paint5_linear_506_3696" x1="1985.26" y1="1093.97" x2="1919.13" y2="1061.27" gradientUnits="userSpaceOnUse">
<stop stop-opacity="0"/>
<stop offset="0.99"/>
</linearGradient>
<linearGradient id="paint6_linear_506_3696" x1="20455.7" y1="2124.83" x2="20507.5" y2="1864.6" gradientUnits="userSpaceOnUse">
<stop stop-opacity="0"/>
<stop offset="0.99"/>
</linearGradient>
<linearGradient id="paint7_linear_506_3696" x1="43497" y1="4111.56" x2="47894.2" y2="4352.19" gradientUnits="userSpaceOnUse">
<stop stop-opacity="0"/>
<stop offset="0.99"/>
</linearGradient>
<linearGradient id="paint8_linear_506_3696" x1="46328.7" y1="3352.97" x2="46129.1" y2="5834.99" gradientUnits="userSpaceOnUse">
<stop offset="0.02" stop-color="white" stop-opacity="0"/>
<stop offset="0.32" stop-color="white" stop-opacity="0.39"/>
<stop offset="0.68" stop-color="white" stop-opacity="0.68"/>
<stop offset="1" stop-color="white"/>
</linearGradient>
<linearGradient id="paint9_linear_506_3696" x1="17593.2" y1="369.829" x2="17563.6" y2="486.287" gradientUnits="userSpaceOnUse">
<stop stop-opacity="0"/>
<stop offset="0.99"/>
</linearGradient>
<linearGradient id="paint10_linear_506_3696" x1="2131.8" y1="703.585" x2="2169.84" y2="684.793" gradientUnits="userSpaceOnUse">
<stop stop-opacity="0"/>
<stop offset="0.99"/>
</linearGradient>
<linearGradient id="paint11_linear_506_3696" x1="2611.78" y1="427.102" x2="2567.7" y2="3213.96" gradientUnits="userSpaceOnUse">
<stop stop-opacity="0"/>
<stop offset="0.99"/>
</linearGradient>
<linearGradient id="paint12_linear_506_3696" x1="3414.17" y1="696.605" x2="3403.14" y2="770.889" gradientUnits="userSpaceOnUse">
<stop stop-opacity="0"/>
<stop offset="0.99"/>
</linearGradient>
<linearGradient id="paint13_linear_506_3696" x1="17193.2" y1="3663.32" x2="18353.1" y2="5940.77" gradientUnits="userSpaceOnUse">
<stop stop-opacity="0"/>
<stop offset="0.99"/>
</linearGradient>
<linearGradient id="paint14_linear_506_3696" x1="12204.1" y1="-3790.12" x2="12226.9" y2="-3730.24" gradientUnits="userSpaceOnUse">
<stop stop-opacity="0"/>
<stop offset="0.99"/>
</linearGradient>
<linearGradient id="paint15_linear_506_3696" x1="10227" y1="20921.9" x2="10491.9" y2="23282.6" gradientUnits="userSpaceOnUse">
<stop stop-opacity="0"/>
<stop offset="0.99"/>
</linearGradient>
<clipPath id="clip0_506_3696">
<rect width="392" height="202" fill="white"/>
</clipPath>
</defs>
</svg>
